<?xml version="1.0" encoding="utf-8"?>
<!-- Generator: Adobe Illustrator 19.0.0, SVG Export Plug-In . SVG Version: 6.00 Build 0)  -->
<svg version="1.1"
	 id="svg2" xmlns:svg="http://www.w3.org/2000/svg" xmlns:cc="http://creativecommons.org/ns#" xmlns:dc="http://purl.org/dc/elements/1.1/" xmlns:inkscape="http://www.inkscape.org/namespaces/inkscape" xmlns:sodipodi="http://sodipodi.sourceforge.net/DTD/sodipodi-0.dtd" xmlns:rdf="http://www.w3.org/1999/02/22-rdf-syntax-ns#" inkscape:version="0.92.2 (5c3e80d, 2017-08-06)" sodipodi:docname="055.svg"
	 xmlns="http://www.w3.org/2000/svg" xmlns:xlink="http://www.w3.org/1999/xlink" x="0px" y="0px" viewBox="444 -354 1500 1500"
	 style="enable-background:new 444 -354 1500 1500;" xml:space="preserve">
<sodipodi:namedview  objecttolerance="10" inkscape:cx="-1630.2966" guidetolerance="10" gridtolerance="10" inkscape:zoom="0.15733333" id="namedview6" inkscape:cy="750" showgrid="false" pagecolor="#ffffff" bordercolor="#666666" borderopacity="1" inkscape:window-x="0" inkscape:window-y="23" inkscape:window-width="1440" inkscape:window-maximized="0" inkscape:current-layer="svg2" inkscape:snap-center="true" inkscape:pageshadow="2" inkscape:pageopacity="0" inkscape:window-height="775">
	</sodipodi:namedview>
<path id="path4" inkscape:connector-curvature="0" d="M1296.1,377.7c-12.3-6.8-28-8.4-47.1-4.6c-19.1,3.8-36.9,12.1-53.2,25.1
	c-15.7,12.3-24.9,25.1-27.6,38.4c-2.7,13.3,2.4,23.4,15.4,30.2c11.6,8.2,27.3,10.4,47.1,6.7c19.8-3.8,37.9-11.8,54.3-24.1
	c15.7-13,24.7-26.3,27.1-39.9C1314.3,395.8,1309,385.2,1296.1,377.7L1296.1,377.7z M1442.5,51.1c-3.4-0.7-6.8-1-10.2-1H1422
	c3.4,1.4,6.8,2.6,10.2,3.6s6.8,2.2,10.2,3.6c4.1,1.4,8.4,2.9,12.8,4.6c4.4,1.7,8.7,3.2,12.8,4.6c8.2,4.1,17.4,9.6,27.6,16.4
	c4.8,2,9.4,4.4,13.8,7.2s8.7,5.8,12.8,9.2c8.2,6.1,16.4,13.3,24.6,21.5c3.4,4.1,7.2,8.4,11.3,12.8c4.1,4.4,7.5,9,10.2,13.8
	c3.4,5.5,6.3,10.4,8.7,14.8c2.4,4.4,4.6,9.4,6.7,14.8c4.8,10.2,8.2,21.8,10.2,34.8c0.7,5.5,1,11.4,1,17.9v20
	c-0.7,6.8-1.7,13.3-3.1,19.5c-1.4,6.1-2.7,13-4.1,20.5c-4.1,10.9-9.6,23.9-16.4,38.9c-2.7,6.8-6.3,13.5-10.8,20
	c-4.4,6.5-9,13.1-13.8,20l-14.3,18.4c0,0-5.5,6.1-16.4,18.4c-6.8,6.8-13.1,13-18.9,18.4c-5.8,5.5-12.1,10.9-18.9,16.4
	c-2.7,1.4-4.8,2.6-6.1,3.6c-1.4,1-2.7,2.2-4.1,3.6l-80.9,59.4l57.3-79.9c9.6-13.7,19.3-32.6,29.2-56.8c9.9-24.2,15.2-54.4,15.9-90.6
	v-2c0-5.5-0.3-11.1-1-16.9s-2.4-11.4-5.1-16.9c-0.7-2-1.9-4.3-3.6-6.7s-3.2-5.3-4.6-8.7c-3.4-5.5-6.8-9.9-10.2-13.3l-7.7-7.7
	c0,0-2.2-1.9-6.7-5.6c-3.4-2-6.5-4.3-9.2-6.7c-2.7-2.4-5.8-4.3-9.2-5.6c-3.4-1.4-7-3.1-10.8-5.1c-3.8-2-7.3-4.1-10.8-6.1
	c-4.8-0.7-9-1.7-12.8-3.1c-3.8-1.4-8-2.7-12.8-4.1s-9.4-2.2-13.8-2.6c-4.4-0.3-9-1.2-13.8-2.6c-5.5-0.7-10.6-1.4-15.4-2
	c-4.8-0.7-9.9-1-15.4-1c-5.5-0.7-10.9-1-16.4-1H1293c-5.5,0.7-11.3,1-17.4,1c-6.1,0-11.9,0.7-17.4,2c-5.5,0.7-11.3,1.4-17.4,2
	l-18.4,2l-18.4,4.1c0,0-6.5,1.4-19.5,4.1c-5.5,1.4-11.8,2.9-18.9,4.6c-7.2,1.7-13.5,3.2-18.9,4.6c-13.7,5.5-26.3,9.6-37.9,12.3
	c-11.6,4.1-23.9,9.6-36.9,16.4c-11.6,3.4-24.2,9.2-37.9,17.4c-13.7,4.8-25.6,10.6-35.8,17.4c-5.5,3.4-11.1,6.8-16.9,10.2
	s-11.4,6.8-16.9,10.2c-6.8,3.4-13,6.8-18.4,10.2s-10.9,7.2-16.4,11.3c-5.5,3.4-10.6,7-15.4,10.8c-4.8,3.8-9.9,7.7-15.4,11.8
	c-4.8,3.4-9.4,7-13.8,10.8c-4.4,3.8-9,8-13.8,12.8c-4.8,3.4-9.6,7-14.3,10.8c-4.8,3.8-8.9,8-12.3,12.8l-11.3,11.3
	c0,0-4.1,3.8-12.3,11.3c-3.4,4.1-6.7,8.2-9.7,12.3c-3.1,4.1-6.3,7.5-9.7,10.2c-3.4,4.8-6.7,9-9.7,12.8c-3.1,3.8-6,7.3-8.7,10.8
	c-2.7,4.1-5.3,7.9-7.7,11.3s-4.9,7.2-7.7,11.3c-4.1,6.8-8.4,13.7-12.8,20.5c-4.4,6.8-8.4,13.3-11.8,19.5c-3.4,6.1-6.5,12.3-9.2,18.4
	c-2.7,6.1-5.1,12.6-7.2,19.5c-2.7,5.5-4.8,10.8-6.1,15.9c-1.4,5.1-2.7,10.4-4.1,15.9c-1.4,4.8-2.4,9.6-3.1,14.3
	c-0.7,4.8-1,9.2-1,13.3c-2,10.2-3.1,18.1-3.1,23.6c0.7,14.3,2.7,25.6,6.1,33.8v3.1l2-6.1c0,0,0.7-2.7,2-8.2c3.4-8.2,6.1-15.5,8.2-22
	c2-6.5,3.8-13.5,5.1-21c1.4-3.4,2.9-7.3,4.6-11.8c1.7-4.4,3.6-8.7,5.6-12.8c1.4-4.8,3.2-9.6,5.6-14.3l7.7-15.4
	c3.4-4.1,6.1-8.9,8.2-14.3c2-5.5,4.8-10.9,8.2-16.4c4.1-5.5,7.9-10.8,11.3-15.9s7.5-10.4,12.3-15.9c4.1-6.1,8.4-12.1,12.8-17.9
	c4.4-5.8,8.7-11.8,12.8-17.9c6.1-5.5,11.9-10.9,17.4-16.4c5.5-5.5,10.9-11.6,16.4-18.4c6.1-5.5,12.3-11.1,18.4-16.9
	s13-11.4,20.5-16.9s14.7-11.1,21.5-16.9s14-11.1,21.5-15.9c7.5-5.5,15.5-10.8,24.1-15.9s16.9-10.4,25.1-15.9
	c8.9-5.5,17.7-10.4,26.6-14.8c8.9-4.4,18.1-8.7,27.6-12.8c8.9-4.8,17.9-8.9,27.1-12.3s18.6-6.8,28.2-10.2
	c10.2-3.4,20.1-6.3,29.7-8.7c9.6-2.4,19.5-4.9,29.7-7.7c9.6-1.4,18.8-2.6,27.6-3.6c8.9-1,18.1-2.2,27.6-3.6
	c17.1-0.7,33.8-0.7,50.2,0c3.4,0,7.2,0.3,11.3,1l12.3,2l86,15.4l-86,14.3c-9.6,2-21.3,4.8-35.3,8.2c-14,3.4-28.3,7.3-43,11.8
	c-14.7,4.4-28.5,8.9-41.5,13.3c-13,4.4-22.9,8.4-29.7,11.8c-8.2,3.4-18.6,8.2-31.2,14.3c-12.6,6.1-24.1,12.3-34.3,18.4
	c-8.9,4.1-17.4,9-25.6,14.8c-8.2,5.8-16,11.4-23.6,16.9c-8.9,5.5-17.1,11.6-24.6,18.4c-7.5,6.8-15,13-22.5,18.4
	c-3.4,4.8-6.8,8.7-10.2,11.8s-6.8,6.7-10.2,10.8c-6.1,8.2-12.3,15.4-18.4,21.5c-3.4,3.4-6.3,7.3-8.7,11.8s-4.6,8.4-6.7,11.8
	c-2.7,3.4-5.1,7.3-7.2,11.8c-2,4.4-3.8,8.4-5.1,11.8c-4.8,6.8-8.2,14.7-10.2,23.6c-1.4,3.4-2.6,7-3.6,10.8c-1,3.8-2.2,8-3.6,12.8
	c-0.7,3.4-1,6.8-1,10.2s-0.7,6.8-2,10.2v21.5c0,3.4,0.3,7,1,10.8c0.7,3.8,1.4,7,2,9.7c1.4,3.4,2.2,6.7,2.6,9.7s1.2,5.6,2.6,7.7
	c1.4,3.4,2.6,6.5,3.6,9.2c1,2.7,2.2,5.1,3.6,7.2c2.7,6.1,6.5,11.6,11.3,16.4c4.1,5.5,8.2,10.2,12.3,14.3c2,2.7,4.3,5.1,6.7,7.2
	c2.4,2,4.9,4.1,7.7,6.1c5.5,4.1,10.9,7.7,16.4,10.8c5.5,3.1,11.3,6.3,17.4,9.7c6.8,3.4,13.5,6.5,20,9.2c6.5,2.7,13.5,4.8,21,6.1
	c12.3,4.8,26.6,8.2,43,10.2c7.5,1.4,14.8,2.4,22,3.1c7.2,0.7,14.8,1,23,1c8.2,0.7,16,0.9,23.6,0.5c7.5-0.3,15.4-0.5,23.6-0.5
	c7.5-1.4,14.8-2,22-2c7.2,0,14.8-0.7,23-2c6.8-1.4,14-2.6,21.5-3.6c7.5-1,14.7-1.9,21.5-2.6c13.7-4.1,27.3-7.5,41-10.2
	c5.5-2,11.3-3.9,17.4-5.6c6.1-1.7,11.9-3.9,17.4-6.7c5.5-1.4,10.9-3.2,16.4-5.6c5.5-2.4,10.2-4.3,14.3-5.6c6.1-2,11.4-3.9,15.9-5.6
	s8.7-3.9,12.8-6.7c-4.1,1.4-8.4,2.2-12.8,2.6s-9.7,1.2-15.9,2.6c-8.9,1.4-18.3,2.7-28.2,4.1c-9.9,1.4-20,2.4-30.2,3.1
	c-5.5,0-11.1,0.3-16.9,1c-5.8,0.7-11.4,1-16.9,1h-18.9c0,0-6-0.7-17.9-2c-12.3,0-24.6-1-36.9-3.1c-6.1-0.7-12.1-1.5-17.9-2.6
	c-5.8-1-11.4-2.2-16.9-3.6c-6.8-1.4-13.1-3.1-18.9-5.1c-5.8-2-11.8-4.4-17.9-7.2c-5.5-2.7-10.6-5.5-15.4-8.2s-9.2-5.1-13.3-7.2
	c-5.5-3.4-10.4-7-14.8-10.8c-4.4-3.8-8.4-7.3-11.8-10.8l-10.2-12.3c0,0-3.4-4.4-10.2-13.3c-2.7-3.4-5.1-7.7-7.2-12.8
	s-3.8-10.1-5.1-14.8c-0.7-3.4-1-6.1-1-8.2c0-2-0.7-4.4-2-7.2l-4.1-38.9l30.7,23.6c4.1,4.1,7.5,7.2,10.2,9.2h2
	c10.2,6.1,24.1,11.9,41.5,17.4c17.4,5.5,35.8,9.7,55.3,12.8c19.5,3.1,39.1,4.8,58.9,5.1c19.8,0.3,37.2-0.9,52.2-3.6
	c2.7,0,4.8-0.2,6.1-0.5s3.8-0.5,7.2-0.5c3.4-1.4,6.3-2,8.7-2c2.4,0,5.3-0.3,8.7-1c13-2,24.2-4.4,33.8-7.2c8.9-2,19.1-5.1,30.7-9.2
	l16.4-6.1c0,0,5.5-2.4,16.4-7.2c5.5-1.4,10.8-3.4,15.9-6.1c5.1-2.7,10.4-5.1,15.9-7.2c6.1-2.7,11.8-5.5,16.9-8.2s10.4-5.8,15.9-9.2
	c10.2-4.1,20.5-10.2,30.7-18.4c5.5-3.4,10.4-6.7,14.8-9.7c4.4-3.1,9-6.7,13.8-10.8c4.8-3.4,9.4-7,13.8-10.8
	c4.4-3.8,9.4-7.3,14.8-10.8c4.1-4.1,8.2-8,12.3-11.8c4.1-3.8,8.5-7.7,13.3-11.8c4.1-3.4,8-7.2,11.8-11.3c3.8-4.1,7.3-8.2,10.8-12.3
	c8.2-8.2,15-16.4,20.5-24.6c3.4-3.4,6.7-7.5,9.7-12.3c3.1-4.8,5.6-8.9,7.7-12.3c3.4-4.1,6.7-8.4,9.7-12.8s5.3-8.7,6.7-12.8
	c4.8-8.2,8.9-16.4,12.3-24.6c4.8-8.9,7.9-17.1,9.2-24.6c2.7-8.2,4.8-16,6.1-23.6c1.4-3.4,2.2-7.2,2.6-11.3c0.3-4.1,1.2-8.2,2.6-12.3
	c0-3.4,0.2-6.8,0.5-10.2s0.2-6.8-0.5-10.2v-10.8c0,0-0.7-3.2-2-9.7c0-7.5-1-14.3-3.1-20.5c-1.4-3.4-2.4-6.7-3.1-9.7
	c-0.7-3.1-1.7-5.6-3.1-7.7c-2-3.4-3.8-6.5-5.1-9.2c-1.4-2.7-2.7-5.1-4.1-7.2c-1.4-3.4-2.9-6.5-4.6-9.2c-1.7-2.7-3.2-5.5-4.6-8.2
	c-2.7-2.7-4.8-5.1-6.1-7.2s-3.8-4.8-7.2-8.2c-4.8-3.4-9.2-7.3-13.3-11.8c-4.1-4.4-8.9-8.7-14.3-12.8c-5.5-3.4-11.1-6.7-16.9-9.7
	c-5.8-3.1-11.4-5.6-16.9-7.7c-5.5-3.4-11.1-6.5-16.9-9.2c-5.8-2.7-11.4-5.1-16.9-7.2c-6.8-1.4-13-2.7-18.4-4.1
	c-5.5-1.4-11.6-2.4-18.4-3.1c-10.2-3.4-20.8-5.5-31.7-6.1c-4.8-1.4-9.6-2-14.3-2L1442.5,51.1L1442.5,51.1z M1421,369.5
	c1.4,19.8-4.1,40.8-16.4,63c-12.3,22.2-30,42.8-53.2,62c-19.8,15-41.1,27.8-64,38.4c-22.9,10.6-45.6,17.9-68.1,22
	c-22.5,4.1-44.4,5.1-65.5,3.1c-21.2-2-39.3-7.5-54.3-16.4c-24.6-14.3-38.6-35.8-42-64.5c-1.4-16.4,2.2-33.6,10.8-51.7
	c8.5-18.1,21-35.7,37.4-52.7c3.4-3.4,7.2-7,11.3-10.8c4.1-3.8,8.2-7.3,12.3-10.8c25.9-19.8,54.8-35.3,86.5-46.6
	c31.7-11.3,62-16.9,90.6-16.9c28.7,0,53.2,5.5,73.7,16.4C1405.3,320.4,1418.9,342.2,1421,369.5L1421,369.5z"/>
</svg>
