<?xml version="1.0" encoding="UTF-8" standalone="no"?>
<svg
   xmlns:dc="http://purl.org/dc/elements/1.1/"
   xmlns:cc="http://creativecommons.org/ns#"
   xmlns:rdf="http://www.w3.org/1999/02/22-rdf-syntax-ns#"
   xmlns:svg="http://www.w3.org/2000/svg"
   xmlns="http://www.w3.org/2000/svg"
   xmlns:sodipodi="http://sodipodi.sourceforge.net/DTD/sodipodi-0.dtd"
   xmlns:inkscape="http://www.inkscape.org/namespaces/inkscape"
   width="1500px"
   height="1500px"
   version="1.1"
   id="svg2"
   inkscape:version="0.91 r13725"
   sodipodi:docname="046.svg">
  <metadata
     id="metadata10">
    <rdf:RDF>
      <cc:Work
         rdf:about="">
        <dc:format>image/svg+xml</dc:format>
        <dc:type
           rdf:resource="http://purl.org/dc/dcmitype/StillImage" />
      </cc:Work>
    </rdf:RDF>
  </metadata>
  <defs
     id="defs8" />
  <sodipodi:namedview
     pagecolor="#ffffff"
     bordercolor="#666666"
     borderopacity="1"
     objecttolerance="10"
     gridtolerance="10"
     guidetolerance="10"
     inkscape:pageopacity="0"
     inkscape:pageshadow="2"
     inkscape:window-width="660"
     inkscape:window-height="480"
     id="namedview6"
     showgrid="false"
     inkscape:zoom="0.15733333"
     inkscape:cx="750"
     inkscape:cy="750"
     inkscape:window-x="0"
     inkscape:window-y="0"
     inkscape:window-maximized="0"
     inkscape:current-layer="svg2" />
  <path
     glyph-name="uniE90D"
     unicode="î¤"
     horiz-adv-x="1033"
     d="m 512.43137,259.5 q -46,30 -85.5,67 -39.5,37 -71.5,79 -47,62 -73,120 -26,58 -38,125 -8,47 -7.5,88 0.5,41 9.5,91 15,84 38.5,140 23.5,56 65.5,109 41,51 93.5,86.5 52.5,35.5 116.5,56.5 20,7 61,15.5 41,8.5 73,13.5 12,1 23,2.5 11,1.5 15,2.5 10,2 19,2 9,0 18,-2 4,0 15.5,-2 11.5,-2 22.5,-3 35,-5 75.5,-13.5 40.5,-8.5 63.5,-16.5 35,-12 73.50003,-32.5 38.5,-20.5 66.5,-43.5 15,-12 33.5,-30.5 18.5,-18.5 32.5,-36.5 40,-50 64,-106 24,-56 39,-139 4,-21 5,-33.5 1,-12.5 2,-47.5 1,-30 0.5,-44.5 -0.5,-14.5 -2.5,-29.5 -10,-75 -35.5,-138 -25.5,-63 -72.5,-127 -32,-43 -72.5,-81.5 -40.5,-38.5 -85.50003,-68.5 -10,-6 -17,-11 -7,-5 -8,-6 -1,-1 2.5,4 3.5,5 10.5,12 25.00003,29 40.50003,60 15.5,31 24.5,69 2,13 3,24 1,11 1,40 0,24 -1,38.5 -1,14.5 -2,24.5 -6,36 -16,69.5 -10,33.5 -23,64.5 l -10.00003,23 5.00003,13 q 16,38 24.5,73 8.5,35 11.5,71 l 1,18 -9,0 q -4,0 -35.50003,-1 -31.5,-1 -72.5,-2 -51,-2 -75,-3.5 -24,-1.5 -24,-2.5 l 17.5,-27.5 q 0,0 41.5,-65.5 l 42,-66.5 q 0,0 20,-30.5 1,-2 -25,23 -26,25 -64,63 l -92,91 0,-11 q 0,-6 -2.5,-82 -2.5,-76 -6,-165 -3.5,-89 -6.5,-162 -3,-73 -4,-73 l -3,71.5 q 0,0 -7,172.5 -4,102 -7.5,174 -3.5,72 -3.5,73 -1,1 -28,-25.5 -27,-26.5 -65,-64.5 -38,-38 -64,-64.5 -26,-26.5 -25,-24.5 1,2 21,32.5 20,30.5 43,67 23,36.5 41.5,66.5 l 18.5,30 -27,1 q 0,0 -64,2 -64,2 -67,2 -3,0 -35,1 l -12,1 0,-16 q 0,-28 8.5,-64 8.5,-36 23.5,-73 l 9,-22 -9,-21 q -13,-27 -23,-61.5 -10,-34.5 -15,-64.5 -1,-7 -2.5,-21.5 -1.5,-14.5 -2.5,-26.5 -5,-68 13,-123 18,-55 59,-97 6,-7 10.5,-12 l 4.5,-5 q -1,0 -8.5,5 -7.5,5 -17.5,12 l 0,0 z m 58,629 q 40,11 68.5,18.5 l 28.5,7.5 -18.5,24 q 0,0 -41.5,52.5 -41.5,52.5 -42,52.5 -0.5,0 -20,24 -4,0 -22.5,-27.5 -18.5,-27.5 -29.5,-49.5 -13,-28 -21,-56 -8,-28 -9,-56 l -1,-18 6,2 q 3,0 33,8 30,8 69,18 l 0,0 z m 470.00003,-13 q -1,17 -4.5,35 -3.5,18 -7.5,31 -8,29 -26.5,62 -18.50003,33 -40.50003,60 l -9,11 -64,-80 q -26,-32 -44.5,-56 l -18.5,-24 q 1,0 33,-8.5 32,-8.5 71.5,-18.5 39.5,-10 72.50003,-18.5 33,-8.5 35,-8.5 3,0 3.5,2 0.5,2 -0.5,13 l 0,0 z m -325.00003,200 q -1,49 -2.5,84 l -1.5,35 q -1,1 -22,-11.5 -21,-12.5 -36,-22.5 -28,-17 -55,-39.5 -27,-22.5 -41,-38.5 l -8,-9 85,-59 q 35,-25 60,-42 l 25,-17 -1,35 q 0,0 -3,85 l 0,0 z m 159,-51 q 30,21 52,36.5 22,15.5 22,16.5 1,2 -23,25 -24,23 -39,35 -14,10 -40,26.5 -26,16.5 -47,27.5 l -17,9 0,-5 q 0,-2 -1.5,-35 l -3.5,-77 q -2,-43 -3,-78 -1,-35 -1,-40 l 0,-11 14,10 q 6,4 31.5,21.5 25.5,17.5 55.5,38.5 l 0,0 z"
     id="path4"
     inkscape:connector-curvature="0" />
</svg>
