<?xml version="1.0" encoding="utf-8"?>
<!-- Generator: Adobe Illustrator 23.1.1, SVG Export Plug-In . SVG Version: 6.00 Build 0)  -->
<svg version="1.1"
	 id="svg2" xmlns:cc="http://creativecommons.org/ns#" xmlns:dc="http://purl.org/dc/elements/1.1/" xmlns:inkscape="http://www.inkscape.org/namespaces/inkscape" xmlns:rdf="http://www.w3.org/1999/02/22-rdf-syntax-ns#" xmlns:sodipodi="http://sodipodi.sourceforge.net/DTD/sodipodi-0.dtd" xmlns:svg="http://www.w3.org/2000/svg"
	 xmlns="http://www.w3.org/2000/svg" xmlns:xlink="http://www.w3.org/1999/xlink" x="0px" y="0px" viewBox="0 0 1500 1500"
	 style="enable-background:new 0 0 1500 1500;" xml:space="preserve">
<sodipodi:namedview  bordercolor="#666666" borderopacity="1" gridtolerance="10" guidetolerance="10" id="namedview6" inkscape:current-layer="svg2" inkscape:cx="750" inkscape:cy="771.32313" inkscape:pageopacity="0" inkscape:pageshadow="2" inkscape:window-height="899" inkscape:window-maximized="0" inkscape:window-width="1644" inkscape:window-x="1339" inkscape:window-y="70" inkscape:zoom="0.15733333" objecttolerance="10" pagecolor="#ffffff" showgrid="false">
	</sodipodi:namedview>
<path id="path4" inkscape:connector-curvature="0" d="M658.1,273.5c-20.2,26.5-26.5,35.9-25.5,38c0.8,1.5,19,42.2,40.5,90.7l39,87.9
	l39-0.3l39-0.5l39.9-89.2c21.8-49,39.5-90.4,39.2-91.7c-0.3-1.5-12.2-17.8-26.3-36.4l-25.7-33.7H684.8L658.1,273.5L658.1,273.5z
	 M527.8,353.6c-39.2,15.7-69.4,33.9-93.1,55.7l-10.8,10l12.8,110.1c7,60.5,12.7,111.1,12.7,112.1c0,1.7,61.4,2.2,301,2.2h301
	l0.8-3.8c0.3-2,6.3-52.5,13.3-112.1l12.5-108.4l-10.3-9.7c-12.8-11.8-31.7-25.3-47.4-34.4c-24.3-13.7-68.4-31.7-70.9-29
	c-0.7,0.8-25.2,58.4-54.5,128.1l-53.4,126.7H660.4l-42.5-100.9c-23.3-55.5-47.7-113.1-54-128.1c-6.2-14.8-12.2-27-13.3-27
	C549.5,345.1,539.4,348.9,527.8,353.6L527.8,353.6z M366.2,479.3c-0.2,0.8-6.2,9.2-13.7,18.3C324.9,532,306,565.4,293,603.6
	c-11.7,34.5-11.2,22.5-11.2,231c0,207.3-0.3,200.5,10.3,234.3c13.7,43.2,64,121.9,97.6,152.6c11.8,10.7,34.4,26.5,47.7,33.2
	c21.8,11.2,39.7,9,54.5-6.3c10-10.3,28-40.2,36.9-61c3.5-8.2,7-15,8-15c1.2,0,49.7,20.7,66.9,28.5c1.8,0.8,9.8,6.7,17.8,12.8
	c24.7,19.2,54.2,34,85.2,42.4c11.8,3.2,17.8,3.7,43.7,3.7c25.7,0,32-0.5,43.5-3.5c35.5-9.8,63.2-23.7,89.9-45.5
	c9-7.3,16.5-11.5,32.5-18c11.5-4.7,26.7-11.2,33.7-14.3c13.7-6.3,18-7.3,18-3.8c0,5,24,49.9,34.5,64.2c13.5,19,19.5,22.7,35.5,22.7
	c14.2-0.2,24.7-4.3,46.9-18.7c28.5-18.7,47.9-38.5,73.5-76.2c25.3-36.9,44.4-75.5,53.5-109.1l5.3-19.3l0.5-195
	c0.5-212.8,0.7-206.3-9-235.7c-6.8-20-24.2-58.2-33.7-73.4c-4.7-7.5-13.2-19.8-19-27.2s-12.8-16.8-15.8-20.8l-5.3-7.5l-1,8.7
	c-1.7,15.7-14.2,160.4-14.2,165.8c0,4.7,0.8,5.5,7.2,8c4,1.5,9,5.2,11.3,8.2c3.5,4.8,4,7.3,4.7,24.5c0.8,30.5-4,115.6-9.2,156.8
	c-4.3,35.7-9.3,54.4-19.7,74.5c-14.2,27.7-24.2,41.7-42.4,59.2c-36.4,34.9-59.4,45.7-96.2,45.4c-44.4-0.5-85.6-14.5-113.2-38.5
	c-42.5-36.9-63.9-46.7-106.1-48.4c-44.7-1.8-72.2,9.3-113.4,45.4c-28,24.7-59.4,37-104.2,41c-25.2,2.3-41.9-0.3-61.7-9.8
	c-40.2-19.5-83.1-68.5-97.4-111.2c-9.8-29.9-15.3-77.4-20.2-178.6c-2.7-53.5-0.8-61.7,16-68.5c4-1.7,7.3-3.8,7.3-4.7
	c0-4-15.2-173.6-15.7-175.9C366.7,478.8,366.4,478.3,366.2,479.3L366.2,479.3z M784,972.8c17,5.3,37.7,17.8,52,31.2
	c30,28.2,54.4,41.2,91.9,49.2l13,2.8l1.3,22.2c0.5,12.2,2.3,28.7,4,36.4c2.5,12.8,2.5,14.3,0.2,15.3c-1.3,0.5-12.5,4.7-24.7,9.2
	s-23.5,8.8-25.3,9.8c-2.8,1.5-4.7,0.8-10.5-3c-3.8-2.8-13.5-9.2-21.5-14.3l-14.3-9.3h-198l-43.4,28.4l-9.2-4
	c-5-2.2-16.7-6.7-25.8-10c-9.2-3.3-17.5-6.7-18.5-7.3c-1.5-0.8-1.3-4,0.3-12c1.3-6,2.8-19.8,3.3-30.9c1.3-31.9,0.7-30,12.8-32.5
	c15.3-3,35.7-9.7,47.9-15.8c12.5-6.3,33.2-21.3,46.7-34c17.8-16.7,42.4-30.2,62.7-34.4C745.2,966.3,767.3,967.6,784,972.8L784,972.8
	z"/>
</svg>
