<?xml version="1.0" encoding="utf-8"?>
<!-- Generator: Adobe Illustrator 23.1.1, SVG Export Plug-In . SVG Version: 6.00 Build 0)  -->
<svg version="1.1"
	 id="svg2" xmlns:cc="http://creativecommons.org/ns#" xmlns:dc="http://purl.org/dc/elements/1.1/" xmlns:inkscape="http://www.inkscape.org/namespaces/inkscape" xmlns:rdf="http://www.w3.org/1999/02/22-rdf-syntax-ns#" xmlns:sodipodi="http://sodipodi.sourceforge.net/DTD/sodipodi-0.dtd" xmlns:svg="http://www.w3.org/2000/svg"
	 xmlns="http://www.w3.org/2000/svg" xmlns:xlink="http://www.w3.org/1999/xlink" x="0px" y="0px" viewBox="0 0 1500 1500"
	 style="enable-background:new 0 0 1500 1500;" xml:space="preserve">
<sodipodi:namedview  bordercolor="#666666" borderopacity="1" gridtolerance="10" guidetolerance="10" id="namedview6" inkscape:current-layer="svg2" inkscape:cx="-1630.2966" inkscape:cy="750" inkscape:pageopacity="0" inkscape:pageshadow="2" inkscape:snap-center="true" inkscape:window-height="775" inkscape:window-maximized="0" inkscape:window-width="1440" inkscape:window-x="0" inkscape:window-y="23" inkscape:zoom="0.15733333" objecttolerance="10" pagecolor="#ffffff" showgrid="false">
	</sodipodi:namedview>
<path id="path4" inkscape:connector-curvature="0" d="M666.4,1236c-68.2-34-201.6-136.1-229.1-175.3c-11.4-16.2-27.1-53.2-35-82.4
	c-12.3-45.5-20-53-54.6-53c-22.2,0-55.1-12-73.3-26.7c-28.2-22.8-33.8-42.3-38.4-133.1c-8.3-163.5,29.6-235.9,123.2-235.9
	c17.5,0,30.8-18.1,42.8-58.3c26.7-89.1,134.1-188.8,235.1-218.1c200-58.2,434.6,57.1,467,229.5c7.6,40.4,14.5,46.9,50.3,46.9
	c25.2,0,55.1,13.6,76.2,34.7c31.9,31.9,34.7,45.4,34.7,167.1c0,120.2-3,135.3-32.7,163.2c-18.5,17.3-51,30.7-74.8,30.7
	c-37.8,0-43.8,6.3-58.7,62c-19.5,72.9-135.1,185.1-249.6,242.1C765.7,1271.2,738.7,1272.1,666.4,1236L666.4,1236z M841.2,1163.7
	c103.2-62.6,182.7-140.5,197.4-193.4c7.9-28.6,14.5-109.7,14.5-180.3l0.1-128.3l-39.8,5.8c-66.1,9.7-159.8-23.8-211.7-75.8
	l-48.4-48.4l-54.1,48.9c-56.8,51.3-145.1,83.4-208.8,76c-35.9-4.2-37.9-1-42.3,66.3c-2.5,38.9-0.4,111,4.8,160.3
	c8.1,76.6,16.9,98,61,146.7c72.2,79.9,184.1,152.2,235.4,152.2C772.6,1193.7,814,1180.2,841.2,1163.7L841.2,1163.7z M624.8,845.5
	c-20-20-8.7-47.4,19.6-47.4c19.8,0,27.8,7.7,24.7,23.6C664.1,847.7,640,860.7,624.8,845.5L624.8,845.5z M833.9,840.1
	c-5.5-8.9-3.3-22.8,4.8-30.9c19-19,63.3-2.4,55.5,20.8C886.3,853.6,846.4,860.3,833.9,840.1L833.9,840.1z"/>
</svg>
