<?xml version="1.0" encoding="utf-8"?>
<!-- Generator: Adobe Illustrator 19.0.0, SVG Export Plug-In . SVG Version: 6.00 Build 0)  -->
<svg version="1.1"
	 id="svg2" sodipodi:docname="053.svg" inkscape:version="0.92.2 (5c3e80d, 2017-08-06)" xmlns:svg="http://www.w3.org/2000/svg" xmlns:rdf="http://www.w3.org/1999/02/22-rdf-syntax-ns#" xmlns:sodipodi="http://sodipodi.sourceforge.net/DTD/sodipodi-0.dtd" xmlns:inkscape="http://www.inkscape.org/namespaces/inkscape" xmlns:dc="http://purl.org/dc/elements/1.1/" xmlns:cc="http://creativecommons.org/ns#"
	 xmlns="http://www.w3.org/2000/svg" xmlns:xlink="http://www.w3.org/1999/xlink" x="0px" y="0px" viewBox="444 -354 1500 1500"
	 style="enable-background:new 444 -354 1500 1500;" xml:space="preserve">
<sodipodi:namedview  inkscape:snap-center="true" inkscape:current-layer="svg2" inkscape:window-maximized="0" inkscape:window-y="23" inkscape:window-x="0" inkscape:window-height="775" inkscape:pageshadow="2" inkscape:pageopacity="0" inkscape:window-width="1440" gridtolerance="10" objecttolerance="10" inkscape:cx="-1630.2966" inkscape:cy="750" showgrid="false" inkscape:zoom="0.15733333" guidetolerance="10" bordercolor="#666666" pagecolor="#ffffff" borderopacity="1" id="namedview6">
	</sodipodi:namedview>
<path id="path4" inkscape:connector-curvature="0" d="M431.532-38.049c-68.159 34.020-201.55 136.087-229.144 175.334-11.37 16.171-27.119 53.25-34.999 82.397-12.299 45.494-20.028 52.994-54.611 52.994-22.157 0-55.139 12.028-73.295 26.73-28.176 22.816-33.796 42.302-38.38 133.073-8.256 163.5 29.554 235.887 123.214 235.887 17.473 0 30.794 18.133 42.828 58.298 26.69 89.084 134.133 188.756 235.117 218.113 200.043 58.154 434.62-57.145 466.958-229.518 7.588-40.449 14.495-46.893 50.262-46.893 25.182 0 55.086-13.621 76.152-34.687 31.893-31.893 34.687-45.355 34.687-167.118 0-120.156-3.032-135.279-32.707-163.158-18.466-17.348-51.032-30.727-74.794-30.727-37.784 0-43.783-6.343-58.681-62.045-19.496-72.894-135.149-185.078-249.595-242.109-83.663-41.691-110.705-42.662-183.012-6.571zM606.368 34.297c103.221 62.645 182.675 140.515 197.374 193.44 7.944 28.603 14.48 109.728 14.523 180.277l0.079 128.271-39.849-5.849c-66.107-9.702-159.773 23.827-211.742 75.796l-48.388 48.388-54.12-48.894c-56.768-51.286-145.071-83.428-208.804-76.004-35.893 4.181-37.918 1.011-42.322-66.267-2.544-38.862-0.382-111.019 4.804-160.348 8.054-76.612 16.942-98.005 60.953-146.72 72.154-79.866 184.118-152.225 235.447-152.161 23.421 0.029 64.841 13.561 92.045 30.071zM389.976 352.462c-20.004 20.004-8.684 47.4 19.584 47.4 19.756 0 27.811-7.674 24.731-23.56-5.044-26.009-29.168-38.987-44.315-23.841zM599.025 357.916c-5.488 8.88-3.329 22.795 4.798 30.922 18.992 18.992 63.27 2.426 55.543-20.78-7.866-23.624-47.855-30.346-60.341-10.143z" />
</svg>
