<?xml version="1.0" encoding="utf-8"?>
<!-- Generator: Adobe Illustrator 23.1.1, SVG Export Plug-In . SVG Version: 6.00 Build 0)  -->
<svg version="1.1"
	 id="svg2" xmlns:cc="http://creativecommons.org/ns#" xmlns:dc="http://purl.org/dc/elements/1.1/" xmlns:inkscape="http://www.inkscape.org/namespaces/inkscape" xmlns:rdf="http://www.w3.org/1999/02/22-rdf-syntax-ns#" xmlns:sodipodi="http://sodipodi.sourceforge.net/DTD/sodipodi-0.dtd" xmlns:svg="http://www.w3.org/2000/svg"
	 xmlns="http://www.w3.org/2000/svg" xmlns:xlink="http://www.w3.org/1999/xlink" x="0px" y="0px" viewBox="0 0 1500 1500"
	 style="enable-background:new 0 0 1500 1500;" xml:space="preserve">
<sodipodi:namedview  bordercolor="#666666" borderopacity="1" gridtolerance="10" guidetolerance="10" id="namedview6" inkscape:current-layer="svg2" inkscape:cx="-1630.2966" inkscape:cy="750" inkscape:pageopacity="0" inkscape:pageshadow="2" inkscape:snap-center="true" inkscape:window-height="775" inkscape:window-maximized="0" inkscape:window-width="1440" inkscape:window-x="0" inkscape:window-y="23" inkscape:zoom="0.15733333" objecttolerance="10" pagecolor="#ffffff" showgrid="false">
	</sodipodi:namedview>
<path id="path4" inkscape:connector-curvature="0" d="M575.5,1237.6c-14.3-11.2-20.5-27.7-50.9-134.1
	c-19.8-70-40.5-141.4-58.6-202.6c-6.6-22.9-17.2-61-23.1-84.3c-17-65.8-16.3-77.3,13-177.7c9.7-32.6,23.6-80.8,31-106.8
	s22-75.1,32.4-109c10.3-33.9,24-79.9,30.6-102.2c6.4-22.2,14.1-44.3,17.2-48.7c10.6-16.1,1.8-15.4,182.8-15.4
	c157.9,0,162.5,0.2,170.9,4.4c5.3,2.6,10.6,7.9,14.1,13.7c6.2,10.8,5.1,7.7,44.3,141.6c5.3,18.3,15.6,53.3,23.1,78.2
	c7.5,24.9,18.1,60.6,23.6,79.3c5.3,18.7,13.7,46.5,18.3,61.7c13,41.8,19.2,63.6,21.8,78c3.1,16.7,3.1,54,0,70.9
	c-3.5,19.2-30.4,115.8-59.2,212.3c-6.4,21.1-16.3,55.9-22.2,77.1s-12.3,42.9-13.9,48.4c-1.8,5.5-5.7,19.8-9,31.9
	c-16.3,61.2-21.8,74.2-35.9,83.7l-8.1,5.5H582.8L575.5,1237.6L575.5,1237.6z M721.1,1179c3.3-2.6,3.7-11.5,4.2-88.1l0.7-85.4
	l5.9-5.9c5.3-5.1,7.9-5.9,18.3-5.9s13,0.9,18.3,5.9l5.9,5.9l0.2,84.8c0.2,64.1,1.1,85.7,3.1,88.1c2.2,2.9,11,3.3,53.3,3.3
	c58.1,0,61-0.7,67.8-16.5c5.5-13,15.9-48.9,23.1-81c3.3-14.1,8.1-31.7,11-39c2.9-7.3,7.7-22,10.6-32.6
	c8.6-30.8,27.1-101.3,31.3-119.4c2.2-9,6.4-23.3,9.2-31.9c2.9-8.4,8.6-27.1,12.8-41.4c11-37.4,14.1-35-44.5-34.1
	c-43.6,0.7-47.6,0.9-50.4,4.8c-2.4,3.5-3.1,21.8-2.9,104.6c0,55.3-0.9,105-2,110.8c-2.6,13.4-13.2,27.5-37.2,49.5
	c-10.6,9.7-24.2,22.5-30.4,28c-13,12.1-20.9,13.4-26.9,4.2c-3.7-5.5-4-16.7-4.4-160.3c-0.7-142.3-0.9-154.4-4.4-156.8
	c-5.3-4-81.9-4-87.2,0c-3.3,2.4-3.7,16.3-4.2,159c-0.4,86.1-1.5,157.9-2.4,159.9c-3.1,6.2-11,8.4-18.3,5.3
	c-7.7-3.3-72.5-67.4-76.9-76.2c-2.6-5.1-3.5-26.4-4.8-116.5c-1.1-90.1-2-111-4.4-113.6c-4.4-4.2-92.3-2.6-96.9,1.8
	c-2.4,2.6-0.9,10.6,9.2,49.1c20.5,76.4,23.3,87.2,51.8,186.1c4.6,16.3,14.1,50,20.9,74.9c16.3,58.8,20,69.4,28,76l6.6,5.5h51.1
	C703.7,1181.6,718.5,1181,721.1,1179L721.1,1179z M796,726.9c2.9-2.9,3.3-22.2,2.6-149.1c-0.4-85.9,0-150.6,1.3-157
	c1.1-5.9,4-13,6.4-15.2c3.5-3.7,5.1-4,10.1-1.8c7.9,3.7,76.9,68,79.9,74.7c1.8,3.5,2.4,40.3,2.4,117.4c0,108.6,0.2,112.3,4.2,114.5
	c2.6,1.3,22.5,2.2,49.5,2.2c38.1,0,45.6-0.4,48.4-3.5c2-1.8,3.5-4,3.5-4.4c0-0.7-4-14.8-8.8-31.3c-4.8-16.7-11.2-40.3-14.1-52.4
	c-3.1-11.9-11-39.6-17.8-61.4c-15.9-50.9-23.6-78-30.6-106.8c-20.9-85.7-32.6-123.1-40.3-130.1c-5.5-5.3-5.5-5.3-59.5-4.8
	c-36.6,0.2-54.8,1.1-56.6,2.9c-1.8,1.8-2.2,26.2-2,85.2c0.4,91.4,0.4,92.7-12.8,97.3c-15,5.3-28.4,1.8-33.9-8.4
	c-2.9-5.7-3.3-18.9-3.3-89c0-74-0.4-82.8-3.7-85.4c-2.6-2.4-14.8-3.3-51.1-3.7c-54-0.9-62.1,0.4-67.6,10.8
	c-4.6,9.2-13.2,36.3-17.6,56.6c-3.1,14.8-12.6,47.8-36.1,128.2c-11.2,37.9-26.2,93.4-29.5,110.1c-2,9-7.7,30.8-12.8,48.2
	c-6.6,23.3-8.4,32.6-6.8,35.2c2,3.1,8.6,3.5,46.5,4.2c41,0.4,44.7,0.2,48.4-3.5c3.7-3.7,4.4-9.5,5.7-51.3c0.9-26,1.3-73.8,1.1-106.6
	c-0.2-49.8,0.2-60.8,3.1-67.2c4.4-9.9,51.8-58.4,72.9-74.4c8.6-6.6,15.6-6.2,20.3,0.9c3.5,5.1,3.7,18.9,4,159.2
	c0.2,124.4,0.9,154.4,3.1,157.2c3.3,3.7,13,4.6,62.5,5.5C787.4,730.2,793.5,729.5,796,726.9L796,726.9z"/>
</svg>
