<?xml version="1.0" encoding="UTF-8" standalone="no"?>
<svg
   xmlns:dc="http://purl.org/dc/elements/1.1/"
   xmlns:cc="http://creativecommons.org/ns#"
   xmlns:rdf="http://www.w3.org/1999/02/22-rdf-syntax-ns#"
   xmlns:svg="http://www.w3.org/2000/svg"
   xmlns="http://www.w3.org/2000/svg"
   xmlns:sodipodi="http://sodipodi.sourceforge.net/DTD/sodipodi-0.dtd"
   xmlns:inkscape="http://www.inkscape.org/namespaces/inkscape"
   width="1500px"
   height="1500px"
   version="1.1"
   id="svg2"
   inkscape:version="0.92.2 (5c3e80d, 2017-08-06)"
   sodipodi:docname="052.svg">
  <metadata
     id="metadata10">
    <rdf:RDF>
      <cc:Work
         rdf:about="">
        <dc:format>image/svg+xml</dc:format>
        <dc:type
           rdf:resource="http://purl.org/dc/dcmitype/StillImage" />
      </cc:Work>
    </rdf:RDF>
  </metadata>
  <defs
     id="defs8" />
  <sodipodi:namedview
     pagecolor="#ffffff"
     bordercolor="#666666"
     borderopacity="1"
     objecttolerance="10"
     gridtolerance="10"
     guidetolerance="10"
     inkscape:pageopacity="0"
     inkscape:pageshadow="2"
     inkscape:window-width="1440"
     inkscape:window-height="775"
     id="namedview6"
     showgrid="false"
     inkscape:zoom="0.15733333"
     inkscape:cx="-842.16103"
     inkscape:cy="750"
     inkscape:window-x="0"
     inkscape:window-y="23"
     inkscape:window-maximized="0"
     inkscape:current-layer="svg2"
     inkscape:snap-center="true" />
  <path
     unicode=""
     glyph-name="set-LEG"
     d="m 1242.5778,824.22654 c -13.6,12.8 -24,25.6 -23.2,28 1.6,16.8 -3.2,24.8 -15.2,24.8 -8,0 -54.4,40 -104,89.6 -88,88.00006 -88.8,88.80006 -76.8,108.00006 12.8,19.2 12,20.8 -70.40005,103.2 -45.6,45.6 -86.4,83.2 -91.2,83.2 -4.8,0 -39.2,-30.4 -76,-68 -53.6,-54.4 -84,-76.8 -143.2,-108 -50.4,-27.2 -84.8,-40 -104,-40 -40.79996,0 -80.79996,-40.8 -80.79996,-80.80006 0,-18.4 -14.4,-56.8 -40.8,-108 -32.8,-64.8 -52.8,-92 -109.6,-149.6 l -69.6,-70.4 85.6,-84.8 c 84,-83.19997 86.4,-83.99997 104.8,-71.99997 18.4,12 20.8,10.4 107.99996,-76.8 49.6,-49.6 89.6,-96 89.6,-104 0,-7.2 4,-13.6 8,-13.6 4.8,0 10.4,0 14.4,0 3.2,-0.8 16.8,-12 31.2,-25.6 16,-15.2 30.4,-22.4 37.6,-20 18.4,7.2 16,32.8 -4,50.4 -9.6,8 -20,23.2 -24,32.8 -4,10.4 -11.2,18.4 -16.8,18.4 -6.4,0 -52,41.6 -102.4,92 -71.99996,71.99997 -89.59996,93.59997 -81.59996,101.59997 13.59996,13.6 11.99996,31.2 -6.4,50.4 l -16,16.8 47.19996,46.4 47.2,47.2 21.6,-16.8 c 22.4,-17.6 28.8,-16.8 53.6,4.8 16,13.6 28,8 78.4,-37.6 15.2,-13.6 53.6,-45.6 86.4,-71.2 32.8,-24.8 105.6,-82.39997 162.4,-127.99997 57.60005,-44.8 107.20005,-81.6 111.20005,-81.6 12.8,0 64,48.8 64,60.8 0,6.4 -71.2,100.79997 -158.40005,209.59997 -87.2,108.8 -160.8,202.4 -164,207.2 -4,5.6 1.6,20 11.2,34.4 l 18.4,24 -38.4,40 46.4,47.2 47.2,47.20006 21.6,-16 c 18.4,-13.6 24.8,-14.4 40,-6.4 16.8,8.8 24.8,3.2 108.80005,-80.80006 50.4,-50.4 91.2,-96 91.2,-101.6 0,-5.6 6.4,-12 14.4,-15.2 7.2,-2.4 23.2,-13.6 35.2,-24 41.6,-39.2 72.8,-6.4 31.2,32.8 z"
     id="path4"
     inkscape:connector-curvature="0" />
</svg>
