<?xml version="1.0" encoding="utf-8"?>
<!-- Generator: Adobe Illustrator 23.1.1, SVG Export Plug-In . SVG Version: 6.00 Build 0)  -->
<svg version="1.1"
	 id="svg2" xmlns:cc="http://creativecommons.org/ns#" xmlns:dc="http://purl.org/dc/elements/1.1/" xmlns:inkscape="http://www.inkscape.org/namespaces/inkscape" xmlns:rdf="http://www.w3.org/1999/02/22-rdf-syntax-ns#" xmlns:sodipodi="http://sodipodi.sourceforge.net/DTD/sodipodi-0.dtd" xmlns:svg="http://www.w3.org/2000/svg"
	 xmlns="http://www.w3.org/2000/svg" xmlns:xlink="http://www.w3.org/1999/xlink" x="0px" y="0px" viewBox="0 0 1500 1500"
	 style="enable-background:new 0 0 1500 1500;" xml:space="preserve">
<sodipodi:namedview  bordercolor="#666666" borderopacity="1" gridtolerance="10" guidetolerance="10" id="namedview6" inkscape:current-layer="svg2" inkscape:cx="-1630.2966" inkscape:cy="750" inkscape:pageopacity="0" inkscape:pageshadow="2" inkscape:snap-center="true" inkscape:window-height="775" inkscape:window-maximized="0" inkscape:window-width="1440" inkscape:window-x="0" inkscape:window-y="23" inkscape:zoom="0.15733333" objecttolerance="10" pagecolor="#ffffff" showgrid="false">
	</sodipodi:namedview>
<path id="path4" inkscape:connector-curvature="0" d="M889.2,986.9c0-14.4,6.1-28.1,16.1-37l193.1-193.6v-77.1h-32.3L815.9,800.7
	v163.9c12,11.5,41.3,39.5,73.3,70C889.2,1018.7,889.2,1002.8,889.2,986.9L889.2,986.9z M522.8,1170.6c-0.4,0.1-0.7,0.4-1.1,0.7
	l-23.8,19.1c44.9,38,101.8,70.7,172.2,85.7c-0.5-3.2-0.9-6.3-0.9-9.6v-38.1c0-29.8,24.3-54.2,54.2-54.2h38.1
	c29.8,0,54.2,24.3,54.2,54.2v38.1c0,4.4-0.7,8.4-1.6,12.5c79.7-13.5,143.3-50.4,191.5-92l-27.2-15.7c-0.9-0.7-105.7-64.4-228.6-64.4
	c-77.3,0-153.8,20.9-220.9,60.3C527.2,1168.4,525,1169.6,522.8,1170.6L522.8,1170.6z M401.8,679.3V753l195.6,196.1
	c10.7,9.6,16.8,23.4,16.8,37.7v35.6l55-57.4V800.4L434,679.3C423.2,679.3,412.5,679.3,401.8,679.3z M390.7,965.4
	c-18.6,27.8-19.8,63-3,91.6c17.7,30.4,44.9,70.3,83,108.2l28.8-23.1l78.1-81.4v-73.8c0-4-1.7-7.8-5.4-11.1L401.8,804.9v143.7
	C398.1,954.2,394.4,959.8,390.7,965.4z M971.6,1113.6c12.8,12.1,21.2,20.5,27.2,26.9l35.1,20.3c38.3-38.9,64.4-78.1,78.8-103.1
	c16.4-28.2,15.2-64.1-3-91.6l-11.2-16.8V808.2L930.6,976.4c-3,2.8-4.8,6.6-4.8,10.6v77.2c0,1.6-0.5,3.2-1.1,4.8
	C942.1,1085.2,958.5,1101,971.6,1113.6L971.6,1113.6z M406.1,587.1v55l687.8,0.4v-55c0-0.3,0-0.5,0-0.8h-0.3
	c-6.2-22.8-18.5-38.8-37.1-47.3c-9.2-4.2-15.4-11.9-17.2-21.1C1013.1,374,895,339.1,815.9,332.5V276c0-30.4-24.7-55-55-55h-18.3
	c-30.4,0-55,24.7-54.9,55v56.2c-80.5,6.6-200.6,41.3-226.8,185.2c-1.7,9.2-7.9,16.9-17.2,21.1C429.8,544.9,413.8,558.5,406.1,587.1
	L406.1,587.1z"/>
</svg>
