<?xml version="1.0" encoding="utf-8"?>
<!-- Generator: Adobe Illustrator 23.1.1, SVG Export Plug-In . SVG Version: 6.00 Build 0)  -->
<svg version="1.1"
	 id="svg2" xmlns:cc="http://creativecommons.org/ns#" xmlns:dc="http://purl.org/dc/elements/1.1/" xmlns:inkscape="http://www.inkscape.org/namespaces/inkscape" xmlns:rdf="http://www.w3.org/1999/02/22-rdf-syntax-ns#" xmlns:sodipodi="http://sodipodi.sourceforge.net/DTD/sodipodi-0.dtd" xmlns:svg="http://www.w3.org/2000/svg"
	 xmlns="http://www.w3.org/2000/svg" xmlns:xlink="http://www.w3.org/1999/xlink" x="0px" y="0px" viewBox="0 0 1500 1500"
	 style="enable-background:new 0 0 1500 1500;" xml:space="preserve">
<sodipodi:namedview  bordercolor="#666666" borderopacity="1" gridtolerance="10" guidetolerance="10" id="namedview6" inkscape:current-layer="svg2" inkscape:cx="-1630.2966" inkscape:cy="750" inkscape:pageopacity="0" inkscape:pageshadow="2" inkscape:snap-center="true" inkscape:window-height="775" inkscape:window-maximized="0" inkscape:window-width="1440" inkscape:window-x="0" inkscape:window-y="23" inkscape:zoom="0.15733333" objecttolerance="10" pagecolor="#ffffff" showgrid="false">
	</sodipodi:namedview>
<path id="path4" inkscape:connector-curvature="0" d="M542.6,297.6c1.2,1.7-5.4,5-14.9,7.9c-38.9,11.2-84.4,29-91.9,35.6
	c-4.6,4.1-11.6,7.5-15.7,7.5s-7.5,1.2-7.5,2.9c0,2.1-8.7,8.7-18.6,15.7c-26.9,18.2-33.1,33.1-32.7,81.1c0.4,35.2,1.7,41,9.9,50.5
	c5.4,6.2,12.8,11.2,16.1,11.2c3.7,0,12.4,3.7,19,8.3c7,4.6,19.5,8.3,27.7,8.3c8.3,0,16.1,1.7,17.8,3.7c2.5,4.6-5.4,140.3-9.1,149.4
	c-1.2,3.3-2.9,19-3.7,35.2c-0.8,15.7-4.1,48.4-7.4,72.4c-3.7,24-8.7,64.6-11.6,89.8c-2.9,25.7-6.6,46.8-8.3,46.8s-3.3,8.3-3.3,18.6
	c0,22.4-7.5,58.4-14.9,73.3c-3.3,6.2-10.8,12.8-17,14.1c-6.2,1.7-22.8,13.2-36.8,26.1c-14.5,12.8-31.5,27.3-38.5,32.7
	c-7.4,5.8-12.8,13.7-12.8,19s-5,12.8-12.4,18.2c-11.6,8.7-12.4,10.8-12.4,38.1c0,18.6,1.7,29,4.6,29c3.3,0,3.3,2.1-0.4,6.2
	c-4.6,5.4,44.7,6.2,440.4,6.2H1154l6.6-15.7c9.5-23.2,5-60.8-11.6-90.7c-17.4-31.9-34.8-53.4-49.7-62.1c-6.6-4.1-12-10.8-12-14.9
	c0-9.1-20.3-18.2-45.9-20.7c-9.9-0.8-24.4-3.7-31.5-6.6c-12-5-13.7-7-13.7-21.1c0-9.1-1.7-25.2-3.7-36
	c-4.1-20.3-11.6-69.1-14.9-98.5c-7.5-57.1-19-131.6-22.8-144.9c-2.1-7-3.7-27.3-3.7-45.5c-0.4-17.8-2.1-33.9-4.1-35.2
	s-4.6-10.3-5.8-20.7c-8.3-66.6-8.3-66.2-0.8-74.5c4.1-4.6,9.9-8.3,13.2-8.3c9.5,0,45.9-20.7,49.3-28.1c2.1-3.7,3.3-12.4,3.7-19.5
	c0-11.2,1.7-12.8,20.7-18.2c13.2-3.3,47.6-5.8,97.3-6.2c46.4-0.4,83.6-2.9,94.4-5.8c16.6-5,17.4-5.8,17.4-21.5
	c0-19-7.5-24.8-32.7-24.8c-9.5,0-17-2.1-17-4.1c0-2.5-4.1-4.1-9.1-4.1c-7.9,0-8.3,0.8-3.3,4.1c4.6,2.9-0.4,4.1-16.6,4.1
	c-12.4,0-29.4,2.1-37.3,4.6c-7.9,2.1-39.3,5-70,5.8c-55.1,1.2-62.5,0-92.3-14.9c-4.1-2.1-9.5-3.7-12-3.7s-10.3-2.5-17.4-5.8
	c-30.2-12.8-36.8-14.9-48.4-14.9c-7,0-12.4-2.1-12.4-4.1c0-2.5-13.2-4.1-31-4.1s-31-1.7-31-4.1s-4.6-4.1-10.3-4.1
	s-10.3-1.7-10.3-4.1c0-2.1-6.2-3.7-14.1-3.3c-9.5,0.4-18.2-3.3-29-11.6c-8.3-6.6-14.9-13.2-14.9-15.3c0-1.7-2.9-2.9-6.2-2.9
	s-6.2-2.1-6.2-4.1c0-2.5-31.9-4.1-87.8-4.1C579,294.7,541,295.9,542.6,297.6L542.6,297.6z"/>
</svg>
