<?xml version="1.0" encoding="UTF-8" standalone="no"?>
<svg
   xmlns:dc="http://purl.org/dc/elements/1.1/"
   xmlns:cc="http://creativecommons.org/ns#"
   xmlns:rdf="http://www.w3.org/1999/02/22-rdf-syntax-ns#"
   xmlns:svg="http://www.w3.org/2000/svg"
   xmlns="http://www.w3.org/2000/svg"
   xmlns:sodipodi="http://sodipodi.sourceforge.net/DTD/sodipodi-0.dtd"
   xmlns:inkscape="http://www.inkscape.org/namespaces/inkscape"
   width="1500px"
   height="1500px"
   version="1.1"
   id="svg2"
   inkscape:version="0.92.2 (5c3e80d, 2017-08-06)"
   sodipodi:docname="053.svg">
  <metadata
     id="metadata10">
    <rdf:RDF>
      <cc:Work
         rdf:about="">
        <dc:format>image/svg+xml</dc:format>
        <dc:type
           rdf:resource="http://purl.org/dc/dcmitype/StillImage" />
      </cc:Work>
    </rdf:RDF>
  </metadata>
  <defs
     id="defs8" />
  <sodipodi:namedview
     pagecolor="#ffffff"
     bordercolor="#666666"
     borderopacity="1"
     objecttolerance="10"
     gridtolerance="10"
     guidetolerance="10"
     inkscape:pageopacity="0"
     inkscape:pageshadow="2"
     inkscape:window-width="1440"
     inkscape:window-height="775"
     id="namedview6"
     showgrid="false"
     inkscape:zoom="0.15733333"
     inkscape:cx="-1630.2966"
     inkscape:cy="750"
     inkscape:window-x="0"
     inkscape:window-y="23"
     inkscape:window-maximized="0"
     inkscape:current-layer="svg2"
     inkscape:snap-center="true" />
  <path
     unicode=""
     glyph-name="set-RIV"
     d="m 800.2175,748.6085 q 0,-22.321 -13.951,-35.574 -13.951,-13.253 -37.667,-13.252 -22.321,0 -35.574,13.252 -13.253,13.252 -13.252,35.574 0,23.716 13.252,37.667 13.252,13.951 35.574,13.951 51.618,0 51.618,-51.618 z m 461.782,0 q 0,-11.163 -27.903,-18.834 -27.903,-7.671 -64.871,-14.651 -36.968,-6.98 -72.546,-13.252 -35.578,-6.272 -50.923,-14.651 -6.976,-29.297 -16.74,-55.106 -9.764,-25.809 -32.086,-55.106 4.187,-8.37 19.533,-32.086 15.346,-23.716 31.391,-50.224 16.045,-26.508 26.508,-47.436 10.463,-20.928 3.488,-25.11 -4.187,-6.976 -25.11,2.094 -20.923,9.07 -47.436,23.716 -26.513,14.646 -50.224,31.391 -23.711,16.745 -32.086,23.716 -29.297,-22.321 -55.106,-32.086 -25.809,-9.765 -55.106,-16.74 -4.187,-12.557 -11.858,-47.436 -7.671,-34.879 -16.74,-72.546 -9.069,-37.667 -18.138,-66.964 -9.069,-29.297 -17.439,-29.297 -6.976,0 -16.045,29.297 -9.069,29.297 -17.439,66.964 -8.37,37.667 -16.045,72.546 -7.675,34.879 -11.858,47.436 -29.297,6.976 -55.106,16.74 -25.809,9.764 -55.106,32.086 -8.37,-6.976 -32.086,-23.716 -23.716,-16.74 -50.224,-31.391 -26.508,-14.651 -47.436,-23.716 -20.928,-9.065 -25.11,-2.094 -6.976,4.187 2.094,25.11 9.07,20.923 23.716,47.436 14.646,26.513 31.391,50.224 16.745,23.711 23.716,32.086 -22.321,29.297 -32.086,55.106 -9.765,25.809 -16.74,55.106 -12.557,4.187 -47.436,11.858 -34.879,7.671 -72.546,16.045 -37.667,8.374 -66.964,17.439 -29.297,9.065 -29.297,16.045 0,8.37 29.297,17.439 29.297,9.069 66.964,18.138 37.667,9.069 72.546,16.74 34.879,7.671 47.436,11.858 6.976,29.297 16.74,55.106 9.764,25.809 32.086,55.106 -6.976,8.37 -23.716,32.086 -16.74,23.716 -31.391,50.224 -14.651,26.508 -23.716,47.436 -9.065,20.928 -2.094,25.11 4.187,6.976 25.11,-3.488 20.923,-10.464 47.436,-26.508 26.513,-16.044 50.224,-31.391 23.711,-15.347 32.086,-19.533 29.297,22.321 55.106,32.086 25.809,9.765 55.106,16.74 4.187,12.557 11.858,47.436 7.671,34.879 16.045,72.546 8.374,37.667 17.439,66.964 9.065,29.297 16.045,29.297 8.37,0 17.439,-29.297 9.069,-29.297 18.138,-66.964 9.069,-37.667 16.74,-72.546 7.671,-34.879 11.858,-47.436 29.297,-6.976 55.106,-16.74 25.809,-9.764 55.106,-32.086 8.37,4.187 32.086,19.533 23.716,15.346 50.224,31.391 26.508,16.045 47.436,26.508 20.928,10.463 25.11,3.488 6.976,-4.187 -3.488,-25.11 -10.464,-20.923 -26.508,-47.436 -16.044,-26.513 -31.391,-50.224 -15.347,-23.711 -19.533,-32.086 22.321,-29.297 32.086,-55.106 9.765,-25.809 16.74,-55.106 15.346,-8.37 50.923,-14.651 35.577,-6.281 72.546,-13.252 36.969,-6.971 64.871,-15.346 27.902,-8.375 27.903,-20.927 z m -513.401,-203.686 q 41.854,0 79.521,16.045 37.667,16.045 66.269,43.948 28.602,27.903 44.643,64.871 16.041,36.968 16.045,78.822 0.004,41.854 -16.045,79.521 -16.049,37.667 -44.643,66.269 -28.594,28.602 -66.269,44.643 -37.675,16.041 -79.521,16.045 -41.846,0.004 -78.822,-16.045 -36.976,-16.049 -64.871,-44.643 -27.895,-28.594 -43.948,-66.269 -16.053,-37.675 -16.045,-79.521 0.008,-41.846 16.045,-78.822 16.037,-36.976 43.948,-64.871 27.911,-27.895 64.871,-43.948 36.96,-16.053 78.822,-16.045 z"
     id="path4"
     inkscape:connector-curvature="0" />
</svg>
