<?xml version="1.0" encoding="utf-8"?>
<!-- Generator: Adobe Illustrator 19.0.0, SVG Export Plug-In . SVG Version: 6.00 Build 0)  -->
<svg version="1.1"
	 id="svg2" inkscape:version="0.92.2 (5c3e80d, 2017-08-06)" sodipodi:docname="055.svg" xmlns:sodipodi="http://sodipodi.sourceforge.net/DTD/sodipodi-0.dtd" xmlns:svg="http://www.w3.org/2000/svg" xmlns:cc="http://creativecommons.org/ns#" xmlns:inkscape="http://www.inkscape.org/namespaces/inkscape" xmlns:rdf="http://www.w3.org/1999/02/22-rdf-syntax-ns#" xmlns:dc="http://purl.org/dc/elements/1.1/"
	 xmlns="http://www.w3.org/2000/svg" xmlns:xlink="http://www.w3.org/1999/xlink" x="0px" y="0px" viewBox="444 -354 1500 1500"
	 style="enable-background:new 444 -354 1500 1500;" xml:space="preserve">
<sodipodi:namedview  inkscape:snap-center="true" inkscape:window-y="23" inkscape:window-width="1440" inkscape:pageshadow="2" inkscape:pageopacity="0" inkscape:window-height="775" inkscape:current-layer="svg2" inkscape:window-maximized="0" inkscape:window-x="0" gridtolerance="10" inkscape:cx="-1630.2966" guidetolerance="10" objecttolerance="10" id="namedview6" inkscape:zoom="0.15733333" showgrid="false" inkscape:cy="750" pagecolor="#ffffff" borderopacity="1" bordercolor="#666666">
	</sodipodi:namedview>
<path id="path4" inkscape:connector-curvature="0" d="M1240-53.8c24.2,27.4,44.3,50.3,44.7,50.8c0.6,0.9,0.2,1.6-3.1,6.5
	c-20.3,29.7-34.2,65.2-38.7,99.3c-0.6,4.4-1.6,18.3-1.4,18.6c0.1,0.1,1.8-2.3,3.9-5.1c20.8-29.1,49.1-54.6,76.6-69.1
	c3.2-1.7,6.1-3,6.5-2.8c0.7,0.3,57.2,62.5,57.5,63.3c0.1,0.3-0.6,0.7-1.5,1.1c-3.4,1.3-18,8.8-22.8,11.6
	c-15.2,8.9-27.9,18.7-39.8,30.7c-12,12.1-20.3,23.5-27.7,38.3c-21,41.9-31.8,78.8-34.6,118.4c-0.7,10.6-0.4,31.5,0.8,41.2
	c4,34.2,14.8,66.3,30.4,90.1c3.3,5.1,13.8,16,20.3,21.2c34.3,27.5,74.7,30,120.1,7.2c14.2-7.1,30-17.8,41-27.6
	c3.7-3.3,14-14.4,19.8-21.3c36.9-43.8,57-90.6,62.9-145.7c1.1-10.1,1.3-38.5,0.3-48.9c-3.8-42-15-82.4-34.4-125.2
	c-17.8-39.2-45.5-83.4-70.5-112.3c-5-5.7-5.6-7.3-3.3-7.3c1.7,0,21.3,13.6,37.7,26.3c19,14.6,32.9,27,52.1,46.1
	c18.5,18.5,29,30.3,42.6,47.8c58.9,75.7,94,164.7,102.2,259.7c5,57.8-0.9,119.7-16.8,176c-20.6,72.8-55.6,137-105.9,195
	c-8.1,9.3-35,36.1-44.1,44.1c-44.4,38.6-91.6,67.4-143.9,88c-56.6,22.2-116.9,33.5-178.9,33.5C1074.7,895.6,968.8,860.2,885,793
	c-27.7-22.2-54.6-49.9-76.2-78.3c-57.6-75.7-92.4-169.3-101.9-273.9c-2.2-24.4-3-44.5-2.2-56.8c8.5-126.3,45.5-222.2,116-301.6
	c23.3-26.3,51.4-51.8,87.6-79.4c16.3-12.5,30.2-22.5,32.4-23.4c2.4-0.9,4.7-1.1,4.7-0.4c0,0.5-3.1,4.3-4.6,5.6
	c-1.5,1.4-13.1,15.5-19.5,23.9C898.9,37.8,883,63,869.1,91c-19.8,40-30.9,77.5-35.2,118.3c-1.2,12.1-1.2,40.6,0,52.2
	c4.2,39.2,14.4,72.9,32.5,107c16.2,30.6,40.3,61.9,59.1,76.5c14.4,11.3,24.4,17.7,37.5,24.3c10.1,5.1,16.7,7.6,26.1,10.2
	c11.5,3.2,15.1,3.6,28.9,3.6c11.1-0.1,13.2-0.2,17.9-1.2c18.5-4,33.9-12,48.7-25.2c13.8-12.3,27.6-35.8,35.4-60.1
	c5.1-15.8,8.3-34.1,9.6-53.8c3-47.3-8.2-105-28.4-146.4c-14-28.9-39.7-56.9-68.8-75.1c-6.6-4.2-18.1-10.1-23.3-12.2
	c-1.7-0.7-3.2-1.3-3.3-1.3c-0.3-0.3,56.4-63.7,56.9-63.7c1.3,0,16.4,9.4,26,16.2c22.3,15.8,44.9,38,58.6,57.8c3.3,4.8,3.2,4.8,3,2.2
	c-1.8-21.2-4.7-35.9-10.5-54.1c-7.1-21.8-18.8-47.1-30-64.3l-3.3-5l1.8-2.2c5.3-6.3,86.7-98.3,87.1-98.5
	C1195.7-103.7,1215.8-81.3,1240-53.8L1240-53.8z"/>
</svg>
