<?xml version="1.0" encoding="UTF-8" standalone="no"?>
<svg
   xmlns:dc="http://purl.org/dc/elements/1.1/"
   xmlns:cc="http://creativecommons.org/ns#"
   xmlns:rdf="http://www.w3.org/1999/02/22-rdf-syntax-ns#"
   xmlns:svg="http://www.w3.org/2000/svg"
   xmlns="http://www.w3.org/2000/svg"
   xmlns:sodipodi="http://sodipodi.sourceforge.net/DTD/sodipodi-0.dtd"
   xmlns:inkscape="http://www.inkscape.org/namespaces/inkscape"
   width="1500px"
   height="1500px"
   version="1.1"
   id="svg2"
   inkscape:version="0.91 r13725"
   sodipodi:docname="047.svg">
  <metadata
     id="metadata10">
    <rdf:RDF>
      <cc:Work
         rdf:about="">
        <dc:format>image/svg+xml</dc:format>
        <dc:type
           rdf:resource="http://purl.org/dc/dcmitype/StillImage" />
      </cc:Work>
    </rdf:RDF>
  </metadata>
  <defs
     id="defs8" />
  <sodipodi:namedview
     pagecolor="#ffffff"
     bordercolor="#666666"
     borderopacity="1"
     objecttolerance="10"
     gridtolerance="10"
     guidetolerance="10"
     inkscape:pageopacity="0"
     inkscape:pageshadow="2"
     inkscape:window-width="660"
     inkscape:window-height="480"
     id="namedview6"
     showgrid="false"
     inkscape:zoom="0.15733333"
     inkscape:cx="750"
     inkscape:cy="750"
     inkscape:window-x="0"
     inkscape:window-y="0"
     inkscape:window-maximized="0"
     inkscape:current-layer="svg2" />
  <path
     glyph-name="uniE90E"
     unicode=""
     horiz-adv-x="1024"
     d="M 750,238 Q 644,238 550.5,278 457,318 387.5,387.5 318,457 278,550.5 238,644 238,750 l 0,0 0,0 q 0,106 40,199.5 40,93.5 109.5,163 69.5,69.5 163,109.5 93.5,40 199.5,40 l 0,0 0,0 q 106,0 199.5,-40 93.5,-40 163,-109.5 69.5,-69.5 109.5,-163 40,-93.5 40,-199.5 l 0,0 0,0 Q 1262,644 1222,550.5 1182,457 1112.5,387.5 1043,318 949.5,278 856,238 750,238 l 0,0 0,0 0,0 z m 250,137 0,0 0,0 q 51,0 88,37 37,37 37,88 l 0,0 0,0 0,0 0,0 q 0,52 -37,88.5 -37,36.5 -88,36.5 l 0,0 0,0 0,0 0,0 Q 948,625 911.5,588.5 875,552 875,500 l 0,0 0,0 0,0 0,0 q 0,-51 36.5,-88 36.5,-37 88.5,-37 l 0,0 0,0 z"
     id="path4"
     inkscape:connector-curvature="0" />
</svg>
