<?xml version="1.0" encoding="utf-8"?>
<!-- Generator: Adobe Illustrator 23.1.1, SVG Export Plug-In . SVG Version: 6.00 Build 0)  -->
<svg version="1.1"
	 id="svg2" xmlns:cc="http://creativecommons.org/ns#" xmlns:dc="http://purl.org/dc/elements/1.1/" xmlns:inkscape="http://www.inkscape.org/namespaces/inkscape" xmlns:rdf="http://www.w3.org/1999/02/22-rdf-syntax-ns#" xmlns:sodipodi="http://sodipodi.sourceforge.net/DTD/sodipodi-0.dtd" xmlns:svg="http://www.w3.org/2000/svg"
	 xmlns="http://www.w3.org/2000/svg" xmlns:xlink="http://www.w3.org/1999/xlink" x="0px" y="0px" viewBox="0 0 1500 1500"
	 style="enable-background:new 0 0 1500 1500;" xml:space="preserve">
<sodipodi:namedview  bordercolor="#666666" borderopacity="1" gridtolerance="10" guidetolerance="10" id="namedview6" inkscape:current-layer="svg2" inkscape:cx="750" inkscape:cy="771.32313" inkscape:pageopacity="0" inkscape:pageshadow="2" inkscape:window-height="899" inkscape:window-maximized="0" inkscape:window-width="1644" inkscape:window-x="1339" inkscape:window-y="70" inkscape:zoom="0.15733333" objecttolerance="10" pagecolor="#ffffff" showgrid="false">
	</sodipodi:namedview>
<path d="M705.6,242.3l-6.1,4.3v217.6c0,172,0.5,218.5,2.1,221.8l2.1,4.1l41.3,0.5l41.3,0.3l6.9-9.5V243.3l-4.9-2.6
	c-3.8-2-11.7-2.5-40.7-2.5C712,238.2,711.6,238.2,705.6,242.3L705.6,242.3z M846,475.2c0,106.8,0.2,194.3,0.5,194.3s5.9-1.8,12.3-4
	c39.3-13.5,79.8-13.8,111.5-1.2c30,12,47.9,24.7,66.2,46.6c44.4,53,68,117.5,103.4,282.8c3.8,17.5,7.4,33.3,15.6,68.3
	c1.8,7.2,3.8,16.1,4.4,19.8c1.3,5.8,2,6.6,6.6,7.1c12,1.2,34.1-15.1,55.8-41.3c18.3-22.2,22.7-33.1,21.7-53.5
	c-0.5-8.7-2.1-18.1-4.3-24.2c-2-5.4-9.9-31.4-17.5-57.6c-34.7-117.9-45.3-149.6-58.4-175.7c-17.6-35.4-27.7-47.6-58.3-71.6
	c-19.9-15.8-23.4-20.7-25-36.9c-4.8-48.4-16.6-112.1-29-155.6c-9.5-33.6-13.3-44.3-23.7-64.9c-27.7-55.2-67-92.2-121-113.6
	c-8.4-3.3-51.5-13.2-58-13.2C846.1,281,846,291.3,846,475.2L846,475.2z M638.5,283.8c-7.2,1.2-30.1,7.1-43.6,11.5
	c-37,11.9-70.6,36.5-95.5,69.8c-32.3,43.3-49.1,86.1-64.9,166.1c-6.1,30.8-12.3,70-15,95c-0.8,7.4-2.6,16.1-4.1,19.1
	c-1.6,3.6-9.4,11-20.4,19.9c-22.7,17.9-40,36.4-50.2,53.3c-9.9,16.6-23.4,49.9-32.3,80.2c-3.8,12.7-11.7,38.5-17.6,57.6
	c-6.1,18.9-14.8,48.2-19.8,65c-4.8,16.8-11.2,37.5-14,46.1c-6.6,19.9-7.2,38.4-1.5,53c6.1,15.6,25.2,39.2,44.9,55
	c12.5,10,21.7,14.3,29.3,13.5c5.3-0.5,5.4-0.8,8.4-12.8c1.6-6.8,5.3-24.2,8.1-38.7c2.8-14.5,6.6-31.9,8.2-38.7
	c1.6-6.8,5.1-22.4,7.4-34.6c12.5-64.4,39.8-155.2,58.6-195.1c10.5-22.7,29.3-49.9,45.6-66.3c31.9-32.1,66.2-46.8,109.8-46.8
	c18.3,0,41.2,3.8,56.6,9.2c4,1.5,7.7,2.1,8.6,1.6s1.5-81.8,1.5-192.6c0-152.3-0.5-191.6-2-191.5
	C643.7,282.9,640.9,283.4,638.5,283.8L638.5,283.8z M562.5,704.1c-14.2,2.5-24.5,6.8-39,16.5c-16.5,11-25.7,20.4-37.4,37.9
	c-22.7,33.7-34.7,64.9-55.6,144.1c-7.6,28.8-17.5,69.8-17.5,72.9c0,0.3,2.8,0.3,6.3-0.3c27.7-5.1,45.4-7.6,54.2-7.6h10.2l27.2,82.6
	c15.1,45.6,27.3,83.6,27.3,84.6c0,1.2-2,2.5-4.3,3c-6.6,1.8-24,20.2-29.5,31.1c-14.8,30.6,0,71.6,31.4,86.1
	c13.5,6.3,25.2,8.1,38.9,5.8c15-2.5,25.8-8.4,37.7-20.4l9.4-9.4h255.5l10.2,10.4c11.4,11.4,17.1,14.7,32.8,18.6
	c9.1,2.5,12.5,2.5,24.4,0.8c7.6-1.2,16.3-3,19.4-4.3c19.3-8.1,36.7-35.7,36.7-58.3c0-18.6-9.1-38.2-23.4-50
	c-3.8-3.3-9.1-7.7-11.5-9.7l-4.4-3.8l24.5-74.1c13.3-40.8,25.8-78.2,27.5-83.1l3-9.1l9.1-0.5c8.7-0.5,47.9,5.1,55.3,8.1
	c3.5,1.2,4,1,4-2.6c0-4.8-10.4-49.1-18.9-81.5c-9.4-35.1-27-86.8-34.6-102.1c-22.1-44-47.1-69.5-79.7-81.2
	c-19.3-7.1-40.5-7.2-66-0.5c-18.3,4.8-51,19.4-65.4,29.3c-13.7,9.4-17.1,9.7-73.8,9.2l-51-0.5l-10.7-5.9
	c-31.1-17.5-62.1-30.6-80.7-34.1C590.6,703.4,571.4,702.6,562.5,704.1L562.5,704.1z M613.5,769.1c13.8,1.3,26.5,3.1,28,3.8
	c1.5,0.8,8.1,2.8,14.3,4.3c18.3,4.8,36.9,14.3,45.6,23.7c14.3,15.3,19.4,44.9,13.7,79.7c-3.1,19.4-5.4,22.9-19.6,29.8
	c-15.8,7.7-25.4,8.2-57.1,2.6c-15.5-2.6-28.8-5.1-29.5-5.6c-0.8-0.5-11-3-22.9-5.8c-36.1-8.1-55.5-20.6-66.2-42.3
	c-4.8-9.7-5.3-30.1-1.2-41.3c3.3-8.9,12-23.5,19.1-31.8c8.9-10.4,28.2-18.3,47.2-19.4C586.9,766.8,599.7,767.8,613.5,769.1
	L613.5,769.1z M949.4,768.3c26.8,4.4,41.2,15.1,53.5,39.8c9.2,18.6,10.7,26.8,7.1,41c-4.9,18.8-17.1,32.6-38,43.1
	c-15.1,7.6-38.9,13.2-102.4,24.2c-18.4,3.3-34.6-0.5-47.1-10.9c-7.7-6.4-8.9-9.7-12-31.8c-3.3-25.2-1.5-44,5.8-59.9
	c11.4-24.7,40.8-38.5,94.5-44.6C934.9,766.5,937.2,766.3,949.4,768.3L949.4,768.3z M780.1,1060.5v99.6h-30.3
	c-26,0-30.5-0.3-31.3-2.6c-1.3-3.5-1.3-194.1,0.2-195.4c0.5-0.7,14.7-1.2,31.3-1.2h30.1V1060.5z M664.9,1079.4
	c0,40.3-0.5,74.9-1,76.9c-1,3.8-1.2,3.8-33.7,3.8h-32.8v-60.3l23.5-35.2c12.8-19.4,27.5-41.7,32.3-49.2c6.4-10,9.2-13.2,10.2-11.5
	C664.2,1005.2,664.9,1039.1,664.9,1079.4L664.9,1079.4z M860.3,1037.4c11.9,18.6,29.6,45.3,37.4,55.6c3.1,4.3,3.5,7.4,4,35.9
	l0.7,31.1h-66.2v-158.9l5.9,8.2C845.2,1014.1,853.6,1026.6,860.3,1037.4L860.3,1037.4z"/>
</svg>
