<?xml version="1.0" encoding="UTF-8" standalone="no"?>
<svg
   xmlns:dc="http://purl.org/dc/elements/1.1/"
   xmlns:cc="http://creativecommons.org/ns#"
   xmlns:rdf="http://www.w3.org/1999/02/22-rdf-syntax-ns#"
   xmlns:svg="http://www.w3.org/2000/svg"
   xmlns="http://www.w3.org/2000/svg"
   xmlns:sodipodi="http://sodipodi.sourceforge.net/DTD/sodipodi-0.dtd"
   xmlns:inkscape="http://www.inkscape.org/namespaces/inkscape"
   width="1500px"
   height="1500px"
   version="1.1"
   id="svg2"
   inkscape:version="0.92.2 (5c3e80d, 2017-08-06)"
   sodipodi:docname="049.svg">
  <metadata
     id="metadata10">
    <rdf:RDF>
      <cc:Work
         rdf:about="">
        <dc:format>image/svg+xml</dc:format>
        <dc:type
           rdf:resource="http://purl.org/dc/dcmitype/StillImage" />
      </cc:Work>
    </rdf:RDF>
  </metadata>
  <defs
     id="defs8" />
  <sodipodi:namedview
     pagecolor="#ffffff"
     bordercolor="#666666"
     borderopacity="1"
     objecttolerance="10"
     gridtolerance="10"
     guidetolerance="10"
     inkscape:pageopacity="0"
     inkscape:pageshadow="2"
     inkscape:window-width="1351"
     inkscape:window-height="775"
     id="namedview6"
     showgrid="false"
     inkscape:zoom="0.15733333"
     inkscape:cx="-842.16103"
     inkscape:cy="750"
     inkscape:window-x="0"
     inkscape:window-y="23"
     inkscape:window-maximized="0"
     inkscape:current-layer="svg2"
     inkscape:snap-center="true" />
  <path
     glyph-name="set-TPG"
     unicode="location"
     horiz-adv-x="1024"
     d="m 309.99998,334.49998 4,7 q 2,2 5,4 3,2 6,2 h 15 q 3,0 5,0.5 2,0.5 4,2.5 v 0 l 57,46 q 2,2 3.5,4.5 1.5,2.5 1.5,5.5 v 1 q 0,3 1,5.5 1,2.5 3,4.5 v 0 l 28,23 q 1,1 3,2 2,1 4,1 v 0 l 34,5 q 2,0 4,1 2,1 3,2 v 0 l 54.99999,44 -12,11.00002 28,22 q 2,1 4,1.5 2,0.5 4,1.5 v 0 h 19 q 1,0 3,0.5 2,0.5 3,1.5 v 0 l 20,13 1,1 14,10 1,12 18,15 q 2,2 3,4.5 1,2.5 1,5.5 v 4 l -6,22 v 1 l -9,25 q 0,1 -0.5,1.5 -0.5,0.5 -0.5,1.5 v 0 l -41,66 q -2,3 -5,4.5 -3,1.5 -7,1.5 -2,0 -4,-0.5 -2,-0.5 -4,-2.5 v 0 l -70,-52 q -1,-1 -2,-2.5 -1,-1.5 -2,-3.5 v 0 l -9.99999,-24 q -1,-2 -2,-3.5 -1,-1.5 -3,-2.5 v 0 l -24,-17 q -1,-1 -3,-1.5 -2,-0.5 -3,-1.5 v 0 l -14,-1 q -2,0 -3.5,-0.5 -1.5,-0.5 -3.5,-2.5 v 0 l -52,-40 q -2,-2 -3.5,-5 -1.5,-3 -1.5,-6 v 0 0 -3 q 0,-3 -1.5,-6 -1.5,-3 -3.5,-5 v 0 l -8,-6 q -2,-2 -4,-2.5 -2,-0.5 -5,-0.5 v 0 0 0 h -5 q -2,0 -4.5,-1 -2.5,-1 -3.5,-3 v 0 l -98,-83.00002 4,-7 -9,-12 -2,-4 q 0,0 -1,-4 0,-3 1,-5.5 1,-2.5 3,-3.5 v 0 z M 726.99997,669.5 l -33,-26 q -17,17 -32.5,35 -15.5,18 -29.5,36 l -1,2 q -2,4 -4,8.5 -2,4.5 -3,8.5 l -1,1 v 12 l 105,74 457.00003,340 q 3,2 7,2.5 4,0.5 8,1.5 v 0 q 2,1 4.5,1 h 9.5 q 0,0 4,-1 v 0 q 3,0 6,-1 3,-1 6,-3 v 0 l 25,-29 q 2,-3 3.5,-7 1.5,-4 2.5,-8 v -1 q 1,-1 1,-2 v -5 q 0,0 -1,-3 v 1 q -2,-5 -8,-8.5 l -6,-3.5 -422.00003,-347 z"
     id="path4"
     inkscape:connector-curvature="0" />
</svg>
