<?xml version="1.0" encoding="UTF-8" standalone="no"?>
<svg
   xmlns:dc="http://purl.org/dc/elements/1.1/"
   xmlns:cc="http://creativecommons.org/ns#"
   xmlns:rdf="http://www.w3.org/1999/02/22-rdf-syntax-ns#"
   xmlns:svg="http://www.w3.org/2000/svg"
   xmlns="http://www.w3.org/2000/svg"
   xmlns:sodipodi="http://sodipodi.sourceforge.net/DTD/sodipodi-0.dtd"
   xmlns:inkscape="http://www.inkscape.org/namespaces/inkscape"
   width="1500px"
   height="1500px"
   version="1.1"
   id="svg2"
   inkscape:version="0.91 r13725"
   sodipodi:docname="002.svg">
  <metadata
     id="metadata10">
    <rdf:RDF>
      <cc:Work
         rdf:about="">
        <dc:format>image/svg+xml</dc:format>
        <dc:type
           rdf:resource="http://purl.org/dc/dcmitype/StillImage" />
      </cc:Work>
    </rdf:RDF>
  </metadata>
  <defs
     id="defs8" />
  <sodipodi:namedview
     pagecolor="#ffffff"
     bordercolor="#666666"
     borderopacity="1"
     objecttolerance="10"
     gridtolerance="10"
     guidetolerance="10"
     inkscape:pageopacity="0"
     inkscape:pageshadow="2"
     inkscape:window-width="1349"
     inkscape:window-height="776"
     id="namedview6"
     showgrid="false"
     inkscape:zoom="0.15733333"
     inkscape:cx="-44.491525"
     inkscape:cy="750"
     inkscape:window-x="0"
     inkscape:window-y="0"
     inkscape:window-maximized="0"
     inkscape:current-layer="svg2" />
  <path
     glyph-name="uniE947"
     unicode="location"
     horiz-adv-x="1024"
     d="m 749.99998,238 q -66,0 -124.5,25 -58.5,25 -102,68.5 -43.5,43.5 -68.5,102 -25,58.5 -25,124.5 0,119.99999 50,244.99999 50,125.00001 110,227.00001 60,102 110,167 l 50,65 50,-65 q 0,0 110,-167 Q 1020,862.99999 1020,802.99999 q 0,-60 50,-244.99999 0,-66 -25,-124.5 -25,-58.5 -68.50002,-102 -43.5,-43.5 -102,-68.5 -58.5,-25 -124.5,-25 z m 0,511.99999 q -80,0 -136,-55.99999 -56,-56 -56,-136 0,-80 56,-136 56,-56 136,-56 80,0 136,56 56,56 56,136 0,80 -56,136 -56,55.99999 -136,55.99999 z"
     id="path4"
     inkscape:connector-curvature="0" />
</svg>
