<?xml version="1.0" encoding="UTF-8" standalone="no"?>
<svg
   xmlns:dc="http://purl.org/dc/elements/1.1/"
   xmlns:cc="http://creativecommons.org/ns#"
   xmlns:rdf="http://www.w3.org/1999/02/22-rdf-syntax-ns#"
   xmlns:svg="http://www.w3.org/2000/svg"
   xmlns="http://www.w3.org/2000/svg"
   xmlns:sodipodi="http://sodipodi.sourceforge.net/DTD/sodipodi-0.dtd"
   xmlns:inkscape="http://www.inkscape.org/namespaces/inkscape"
   width="1500px"
   height="1500px"
   version="1.1"
   id="svg2"
   inkscape:version="0.91 r13725"
   sodipodi:docname="041.svg">
  <metadata
     id="metadata10">
    <rdf:RDF>
      <cc:Work
         rdf:about="">
        <dc:format>image/svg+xml</dc:format>
        <dc:type
           rdf:resource="http://purl.org/dc/dcmitype/StillImage" />
      </cc:Work>
    </rdf:RDF>
  </metadata>
  <defs
     id="defs8" />
  <sodipodi:namedview
     pagecolor="#ffffff"
     bordercolor="#666666"
     borderopacity="1"
     objecttolerance="10"
     gridtolerance="10"
     guidetolerance="10"
     inkscape:pageopacity="0"
     inkscape:pageshadow="2"
     inkscape:window-width="660"
     inkscape:window-height="480"
     id="namedview6"
     showgrid="false"
     inkscape:zoom="0.15733333"
     inkscape:cx="750"
     inkscape:cy="750"
     inkscape:window-x="0"
     inkscape:window-y="0"
     inkscape:window-maximized="0"
     inkscape:current-layer="svg2" />
  <path
     glyph-name="uniE908"
     unicode=""
     horiz-adv-x="804"
     d="m 621.875,276.64286 q -83,24 -135.5,82 -52.5,58 -76.5,155 -8,31 -16.5,58 -8.5,27 -12.5,35 -4,8 -7,80.5 -3,72.5 -3,166.5 l 0,229.00004 109,58 q 45,24 79,41 34,17 37,17 4,0 5.5,-24.5 1.5,-24.5 0.5,-58.5 -1,-34 -4,-70 -3,-36 -8,-58.00004 -13,-61 -29,-90 -16,-29 -37,-29 -24,0 -48.5,14 -24.5,14 -46.5,38 l -25,30 0,-102 q 0,-87 11.5,-97 11.5,-10 79.5,13 42,14 70,39.5 28,25.5 44.5,65.5 16.5,40 21,97 4.5,57.00004 0.5,135.00004 -3,50 -2.5,84.5 0.5,34.5 3.5,34.5 4,0 13.5,2 9.5,2 20.5,5 l 24,6 0,-505.00004 -62,-8 q -27,-3 -68,-11 -41,-8 -73,-15 -45,-12 -62,-21 -17,-9 -19,-21 -2,-15 43.5,-18 45.5,-3 290.5,-3 251,0 293.5,3 42.5,3 42.5,20 0,15 -13,22.5 -13,7.5 -56,18.5 -28,7 -68.5,14.5 -40.5,7.5 -68.5,10.5 l -70,8 0,251 q 0,146.00004 3,199.00004 3,53 12,53 26,-1 32.5,-27.5 6.5,-26.5 4.5,-137.5 -1,-98.00004 2.5,-132.00004 3.5,-34 18.5,-67 19,-41 48.5,-66.5 29.5,-25.5 76.5,-40.5 57,-20 67.5,-8 10.5,12 10.5,101 -1,76 -3.5,87.5 -2.5,11.5 -14.5,-9.5 -15,-28 -49.5,-47 -34.5,-19 -59.5,-12 -27,7 -44.5,64 -17.5,57 -23.5,155.00004 -4,65 -2,86 2,21 11,20 6,0 43,-18.5 37,-18.5 82,-44.5 l 110,-63 4,-201.00004 q 1,-117 -2,-166.5 -3,-49.5 -12,-70.5 -6,-15 -14,-41.5 -8,-26.5 -14,-48.5 -16,-70 -43,-120.5 -27,-50.5 -66.5,-84 -39.5,-33.5 -93,-51 -53.5,-17.5 -122.5,-21.5 -40,-1 -78.5,1.5 -38.5,2.5 -61.5,8.5 l 0,0 z"
     id="path4"
     inkscape:connector-curvature="0" />
</svg>
