<?xml version="1.0" encoding="UTF-8" standalone="no"?>
<svg
   xmlns:dc="http://purl.org/dc/elements/1.1/"
   xmlns:cc="http://creativecommons.org/ns#"
   xmlns:rdf="http://www.w3.org/1999/02/22-rdf-syntax-ns#"
   xmlns:svg="http://www.w3.org/2000/svg"
   xmlns="http://www.w3.org/2000/svg"
   xmlns:sodipodi="http://sodipodi.sourceforge.net/DTD/sodipodi-0.dtd"
   xmlns:inkscape="http://www.inkscape.org/namespaces/inkscape"
   width="1500px"
   height="1500px"
   version="1.1"
   id="svg2"
   inkscape:version="0.91 r13725"
   sodipodi:docname="043.svg">
  <metadata
     id="metadata10">
    <rdf:RDF>
      <cc:Work
         rdf:about="">
        <dc:format>image/svg+xml</dc:format>
        <dc:type
           rdf:resource="http://purl.org/dc/dcmitype/StillImage" />
      </cc:Work>
    </rdf:RDF>
  </metadata>
  <defs
     id="defs8" />
  <sodipodi:namedview
     pagecolor="#ffffff"
     bordercolor="#666666"
     borderopacity="1"
     objecttolerance="10"
     gridtolerance="10"
     guidetolerance="10"
     inkscape:pageopacity="0"
     inkscape:pageshadow="2"
     inkscape:window-width="660"
     inkscape:window-height="480"
     id="namedview6"
     showgrid="false"
     inkscape:zoom="0.15733333"
     inkscape:cx="750"
     inkscape:cy="750"
     inkscape:window-x="0"
     inkscape:window-y="0"
     inkscape:window-maximized="0"
     inkscape:current-layer="svg2" />
  <path
     glyph-name="uniE90A"
     unicode=""
     horiz-adv-x="945"
     d="m 759.31731,283.36606 q -47,9 -120.5,52 -73.5,43 -139.5,94 -66,51 -108,97 -42,46 -25,61 8,9 80.5,3.5 72.5,-5.5 167.5,-23.5 79,-15 159.5,-48.5 80.5,-33.5 144.5,-74.5 64,-41 104.49999,-85 40.5,-44 40.5,-79 0,-27 -79.49999,-26.5 -79.5,0.5 -224.5,29.5 z m 248.99999,158 q -76.99999,83 -90.49999,133.5 -13.5,50.5 7.5,213.5 26,245.00004 63,291.00004 36.99999,46 125.99999,-51 65,-71.00004 77,-133.00004 12,-62 -2,-269 -3,-62 -8.5,-116.5 -5.5,-54.5 -12,-95 -6.5,-40.5 -12.5,-64 -6,-23.5 -11,-23.5 -11,0 -52,33.5 -41,33.5 -85,80.5 l 0,0 z m -535.99999,213 q -74,20 -123,42 -49,22 -46,36 3,12 12.5,82 9.5,70 18.5,159 30,227.00004 72.5,258.50004 42.5,31.5 258.5,-6.5 l 248,-48 -28,-196.00004 q -38,-314 -91,-354.5 -53,-40.5 -322,27.5 l 0,0 z"
     id="path4"
     inkscape:connector-curvature="0" />
</svg>
