<?xml version="1.0" encoding="UTF-8" standalone="no"?>
<svg
   xmlns:dc="http://purl.org/dc/elements/1.1/"
   xmlns:cc="http://creativecommons.org/ns#"
   xmlns:rdf="http://www.w3.org/1999/02/22-rdf-syntax-ns#"
   xmlns:svg="http://www.w3.org/2000/svg"
   xmlns="http://www.w3.org/2000/svg"
   xmlns:sodipodi="http://sodipodi.sourceforge.net/DTD/sodipodi-0.dtd"
   xmlns:inkscape="http://www.inkscape.org/namespaces/inkscape"
   width="1500px"
   height="1500px"
   version="1.1"
   id="svg2"
   inkscape:version="0.92.2 (5c3e80d, 2017-08-06)"
   sodipodi:docname="untitled.svg">
  <metadata
     id="metadata10">
    <rdf:RDF>
      <cc:Work
         rdf:about="">
        <dc:format>image/svg+xml</dc:format>
        <dc:type
           rdf:resource="http://purl.org/dc/dcmitype/StillImage" />
      </cc:Work>
    </rdf:RDF>
  </metadata>
  <defs
     id="defs8" />
  <sodipodi:namedview
     pagecolor="#ffffff"
     bordercolor="#666666"
     borderopacity="1"
     objecttolerance="10"
     gridtolerance="10"
     guidetolerance="10"
     inkscape:pageopacity="0"
     inkscape:pageshadow="2"
     inkscape:window-width="1349"
     inkscape:window-height="775"
     id="namedview6"
     showgrid="false"
     inkscape:zoom="0.15733333"
     inkscape:cx="-44.491525"
     inkscape:cy="750"
     inkscape:window-x="0"
     inkscape:window-y="23"
     inkscape:window-maximized="0"
     inkscape:current-layer="svg2" />
  <path
     glyph-name="set-EaW"
     unicode="location"
     horiz-adv-x="1024"
     d="m 87.5,749.5 v 43 q 0,17 5,32 5,15 14,27 h -1 q 7,10 13.5,20.5 6.5,10.5 12.5,20.5 2,3 2.5,6.5 0.5,3.5 0.5,6.5 v 1 q 1,15 4.5,28.5 3.5,13.5 9.5,25.5 v -1 q 1,2 2.5,3.5 1.5,1.5 3.5,1.5 v 0 q 5,0 8,3.5 3,3.5 4,7.5 v 0 q 0,2 1,3.5 1,1.5 2,2.5 v 0 l 50,54 q 7,7 12.5,14.5 5.5,7.5 9.5,15.5 v 1 q 3,5 6.5,9.5 3.5,4.5 7.5,7.5 v 0 q 10,11 20,21.5 10,10.5 20,21.5 16,16 31,34 15,18 28,37 l 1,2 q 4,6 10.5,10 6.5,4 14.5,5 v 0 q 5,0 9,0.5 4,0.5 9,0.5 v 0 0 q 2,0 3,1.5 1,1.5 1,3.5 v 0 0 0 q 1,6 4,12 3,6 8,11 v 0 q 6,6 13,10.5 7,4.5 15,6.5 h 1 q 0,1 1,1 h 2 q 2,0 4.5,-1 2.5,-1 3.5,-3 v 0 q 4,-4 8,-7.5 4,-3.5 8,-7.5 3,-4 5.5,-8 2.5,-4 4.5,-8 v 0 q 1,-2 1,-3.5 v -2.5 q 0,-3 -1,-5.5 -1,-2.5 -3,-4.5 v 0 q -5,-6 -10.5,-11.5 l -10.5,-10.5 q -3,-3 -5,-6.5 -2,-3.5 -2,-7.5 v 0 q -1,-16 -6,-30.5 -5,-14.5 -14,-26.5 v 1 q -8,-12 -15.5,-24 -7.5,-12 -15.5,-24 -3,-5 -6.5,-8.5 -3.5,-3.5 -6.5,-7.5 v 0 q -7,-8 -13.5,-17 -6.5,-9 -11.5,-19 l -1,-1 q -9,-16 -19.5,-30.5 -10.5,-14.5 -22.5,-27.5 h 1 q -14,-16 -27.5,-32.5 -13.5,-16.5 -26.5,-32.5 -4,-6 -8,-11 -4,-5 -8,-11 -2,-3 -1.5,-4.5 l 1.5,-4.5 q 6,-6 11,-13 l 10,-14 q 5,-8 12.5,-12 7.5,-4 16.5,-4 h 52 q 2,0 3,-1 1,-1 1,-3 v -8 q 0,0 1.5,-2.5 1.5,-2.5 3.5,-1.5 v 0 0 0 h 26 l 1,1 q 0,0 1,2 v 6 q 0,4 1.5,6 1.5,2 5.5,3 l 37,11 123,34 q 3,0 5.5,2 2.5,2 3.5,4 v 0 q 26,38 64.5,63 38.5,25 84.5,33 h 2 q 10,2 21.5,3 11.5,1 23.5,1 h 3 q 35,0 66,-11 31,-11 57,-31 h -1 q 16,-12 29,-26.5 13,-14.5 23,-31.5 l 1,-1 q 0,-1 1.5,-2 1.5,-1 2.5,-2 l 164,-45 q 4,-1 5.5,-3 1.5,-2 1.5,-6 v -2 q 0,-4 1,-5.5 1,-1.5 6,-1.5 h 36 q 3,0 4,1 1,1 1,4 0,8 1.5,9.5 1.5,1.5 10.5,1.5 h 46 q 3,0 6,1.5 3,1.5 5,3.5 v 0 q 5,8 10.5,15 5.5,7 10.5,14 1,2 2,4.5 1,2.5 1,5.5 0,3 -1,5.5 -1,2.5 -2,4.5 v 0 q -24,35 -47.5,70.5 -23.5,35.5 -49.5,68.5 -14,18 -26.5,37 -12.5,19 -24.5,40 l -1,3 q -5,7 -9.5,13.5 -4.5,6.5 -9.5,12.5 v 0 q -6,6 -11,13.5 -5,7.5 -8,16.5 v 0 q -1,2 -1.5,3.5 -0.5,1.5 -0.5,3.5 0,2 1,4.5 1,2.5 2,4.5 v 0 5 q -6,9 -12,18.5 -6,9.5 -12,18.5 -3,5 -6,11 -3,6 -5,12 v 1 q 0,1 -0.5,2 -0.5,1 -0.5,2 0,4 2,6.5 2,2.5 6,4.5 v 0 q 13,6 25,12 2,1 4,1.5 2,0.5 4,0.5 2,0 3.5,-0.5 1.5,-0.5 3.5,-1.5 v 0 q 7,-2 12.5,-6.5 5.5,-4.5 9.5,-10.5 v 0 q 6,-12 12,-23 1,-2 2.5,-3 1.5,-1 3.5,-1 v 0 q 12,-1 23,-5.5 11,-4.5 19,-12.5 v 0 l 14,-12 q 0,0 13,-12 v 0 q 4,-4 7,-9 3,-5 5,-11 v 0 q 7,-15 15,-28 8,-13 18,-24 v 0 q 10,-11 19,-21.5 9,-10.5 18,-20.5 4,-4 7.5,-9 3.5,-5 6.5,-10 v 0 q 8,-12 16.5,-22.5 8.5,-10.5 18.5,-20.5 v 0 q 7,-7 14.5,-14 7.5,-7 14.5,-15 2,-2 3.5,-4.5 1.5,-2.5 1.5,-5.5 v 0 q 1,-4 3.5,-6.5 2.5,-2.5 6.5,-2.5 v 0 q 3,0 5.5,-2 2.5,-2 3.5,-5 v 0 q 2,-4 2.5,-8 0.5,-4 0.5,-9 0,-5 -1,-10 -1,-5 -3,-9 v 0 q -1,-1 -1,-2.5 v -2.5 q 0,-2 1,-4 1,-2 3,-4 v 0 q 15,-14 25.5,-33 10.5,-19 13.5,-41 v -1 q 1,-6 1.5,-13.5 0.5,-7.5 0.5,-14.5 v -94 q -1,-19 -7,-36.5 -6,-17.5 -16,-31.5 v 0 q -4,-6 -9,-12 -5,-6 -10,-11 h 1 q -3,-2 -4,-4.5 -1,-2.5 -1,-5.5 v -4 q 1,-4 2,-7.5 1,-3.5 3,-6.5 v 1 q 1,-2 1.5,-4.5 0.5,-2.5 0.5,-4.5 0,-5 -1.5,-8.5 -1.5,-3.5 -4.5,-6.5 v 0 q -5,-5 -10,-9.5 -5,-4.5 -10,-9.5 -5,-5 -9.5,-10.5 -4.5,-5.5 -8.5,-12.5 v 0 q -7,-13 -16,-24.5 -9,-11.5 -19,-21.5 h -1 l -37,-39 q -1,0 -1.5,-1 l -0.5,-1 q -8,-14 -16.5,-26 -8.5,-12 -19.5,-22 v 0 l -38,-40 q -5,-5 -9.5,-10.5 -4.5,-5.5 -7.5,-11.5 v -1 q -4,-8 -9.5,-14.5 -5.5,-6.5 -12.5,-12.5 v 0 q -3,-2 -7.5,-3.5 -4.5,-1.5 -8.5,-1.5 -3,0 -5.5,0.5 -2.5,0.5 -4.5,1.5 v 0 h -2 q 0,0 -2,-0.5 -2,-0.5 -2,-2.5 v 0 q -2,-5 -4.5,-10 -2.5,-5 -5.5,-10 -4,-9 -12.5,-15 -8.5,-6 -18.5,-7 v 0 q -3,0 -6,-0.5 -3,-0.5 -6,-0.5 v 0 0 0 q -4,0 -7,1 -3,1 -6,4 v 0 l -9,9 q 0,1 -0.5,2 -0.5,1 -0.5,2 v 0 q 0,5 -0.5,9.5 -0.5,4.5 -0.5,8.5 v 1 q 0,7 3,12.5 3,5.5 7,9.5 h 1 q 5,5 10,11 5,6 9,12 v 1 q 1,1 2,3.5 1,2.5 1,4.5 0,2 -1,4.5 -1,2.5 -2,3.5 v 0 q -1,1 -1,2.5 v 2.5 q 0,2 0.5,3 0.5,1 0.5,2 v 0 q 6,12 12,23 3,5 5,11 2,6 2,12 v 0 q 0,1 1,2.5 1,1.5 2,1.5 v 0 q 13,8 23.5,18 10.5,10 18.5,22 v 0 q 3,3 5,6 2,3 4,5 v 0 q 7,8 12.5,17 5.5,9 10.5,18 v 1 q 14,26 29,50 15,24 30,49 10,14 18,29.5 8,15.5 17,30.5 1,1 1.5,2 0.5,1 0.5,2 0,1 -0.5,2 -0.5,1 -1.5,2 v 0 q -4,5 -7.5,10.5 -3.5,5.5 -8.5,10.5 -2,3 -6,5 -4,2 -8,2 l -1,-1 h -58 q -1,0 -2,1 -1,1 -1,3 v 7 q 0,0 -1,3.5 -1,3.5 -4,1.5 h -40 q -1,0 -2,-1 -1,-1 -1,-2 v 0 q -1,-1 -1,-1.5 v -3 q 0,0 1,-1.5 v 0 q 0,-4 -1.5,-6 -1.5,-2 -5.5,-3 -17,-6 -34,-11 -30,-9 -60.5,-17 -30.5,-8 -60.5,-15 -6,-1 -10,-4.5 -4,-3.5 -7,-8.5 v 0 q -13,-21 -31,-38.5 -18,-17.5 -38,-30.5 h -1 q -16,-9 -33.5,-15 -17.5,-6 -35.5,-9 h -1 l -18,-2 q 0,0 -18,-1 -26,0 -50.5,5.5 -24.5,5.5 -47.5,15.5 l 2,-1 q -26,13 -48,30 -22,17 -39,39 v 0 q -2,3 -4,5.5 -2,2.5 -4,5.5 -3,3 -6.5,5.5 -3.5,2.5 -8.5,3.5 v 0 l -157,44 q -5,1 -5.5,2.5 -0.5,1.5 -0.5,5.5 v 2 q 0,5 -1,6 -1,1 -6,1 h -22 q -2,0 -3,-1 -1,-1 -1,-4 v -4 q 0,-4 -1.5,-5.5 -1.5,-1.5 -5.5,-1.5 h -66 v 0.5 q 0,0 -1,0.5 -3,0 -5.5,-2 -2.5,-2 -4.5,-4 v 0 q -4,-5 -7,-11 -3,-6 -4,-13 v 0 q -1,-1 -1,-2.5 v -3.5 q 0,-6 1.5,-11 1.5,-5 5.5,-9 v 0 q 10,-13 19.5,-28.5 9.5,-15.5 17.5,-32.5 l 2,-2 q 10,-20 22,-37 12,-17 26,-32 v 0 L 355,490 q 0,0 0.5,-1.5 v 0 q 9,-15 17.5,-27.5 8.5,-12.5 18.5,-24.5 v 1 q 6,-8 11.5,-16.5 5.5,-8.5 11.5,-17.5 l 1,-2 q 3,-5 7,-9.5 4,-4.5 8,-8.5 v 0 q 6,-6 11.5,-13.5 5.5,-7.5 9.5,-14.5 v -1 q 2,-2 2.5,-5 0.5,-3 0.5,-5 0,-3 -0.5,-6 -0.5,-3 -2.5,-5 v 0 l 1,-3 q 4,-5 8.5,-9.5 4.5,-4.5 7.5,-9.5 5,-6 8,-14 3,-8 3,-17 v -8 q -1,-5 -4,-9.5 -3,-4.5 -7,-8.5 v 0 q -1,-1 -2.5,-1 h -7.5 q -5,0 -7,-1.5 -2,-1.5 -3,-6.5 0,-2 -3,-3.5 -3,-1.5 -6,-0.5 -6,0 -10.5,2.5 -4.5,2.5 -8.5,6.5 v 0 q -7,7 -14.5,15 -7.5,8 -14.5,15 -2,2 -4,3 l -4,2 q -7,2 -13,5.5 -6,3.5 -11,8.5 v 0 q -16,14 -31,29 -1,1 -2.5,3 -1.5,2 -2.5,3 v 1 q -14,26 -30.5,49 -16.5,23 -34.5,43 v 0 q -12,13 -24.5,26.5 -12.5,13.5 -23.5,28.5 -7,10 -14,19.5 -7,9.5 -15,18.5 -6,7 -11.5,13 -5.5,6 -11.5,11 h -1 q -10,9 -16,21 -6,12 -6,26 v 1 q 0,3 -1,6 l -2,6 q -6,10 -12.5,21 -6.5,11 -13.5,21 -9,12 -14,27.5 -5,15.5 -5,32.5 v 0 z m 711,5 v 5 q 0,9 -4.5,16 -4.5,7 -12.5,11 v 0 q -5,3 -11,4.5 -6,1.5 -12,1.5 -5,0 -9.5,-0.5 -4.5,-0.5 -8.5,-2.5 h 1 q -9,-3 -14.5,-9 -5.5,-6 -7.5,-15 v 0 q 0,-2 -0.5,-5 -0.5,-3 -0.5,-6 0,-4 1,-7.5 1,-3.5 2,-7.5 v 0 q 3,-12 13,-20.5 10,-8.5 24,-8.5 7,0 13,2 6,2 11,6 h -1 q 8,6 12.5,14.5 4.5,8.5 4.5,19.5 z m -139,1 h 36 q 3,0 4.5,2 1.5,2 1.5,4 v 1 q 0,4 1.5,8 1.5,4 4.5,7 v 0 q 3,4 2.5,6.5 -0.5,2.5 -4.5,5.5 l -2,1 q -11,7 -19.5,16.5 -8.5,9.5 -13.5,20.5 v 0 q -1,3 -3,4.5 -2,1.5 -5,2.5 v 0 q -2,1 -4.5,1 -2.5,0 -4.5,-2 -4,-6 -8,-11.5 -4,-5.5 -8,-11.5 -6,-11 -10,-23 -4,-12 -4,-26 v 0 q 0,-4 0.5,-5 0.5,-1 4.5,-1 z m 90,-100 v 34 q 0,3 -1,4.5 -1,1.5 -5,0.5 h -2 q -4,0 -7,1.5 -3,1.5 -5,3.5 v 0 q -3,2 -5.5,2 -2.5,0 -5.5,-3 -2,-3 -5.5,-7.5 -3.5,-4.5 -7.5,-8.5 -1,-2 -3,-2.5 -2,-0.5 -4,-1.5 v 0 q -10,-2 -17,-9 -7,-7 -9,-17 v 0 q -1,-1 -1,-1.5 v -1.5 q 0,0 1,-3 1,-3 2,-2 v 0 q 3,-2 5.5,-4 2.5,-2 4.5,-4 13,-8 28.5,-13.5 15.5,-5.5 31.5,-5.5 h 1 q 2,0 3,0.5 1,0.5 1,3.5 z m 0,197 v 0 28 q 0,3 -1,3.5 -1,0.5 -3,0.5 l -8,-1 q -18,-2 -33.5,-9.5 -15.5,-7.5 -27.5,-18.5 v 0 q -2,-1 -3.5,-3 -1.5,-2 -1.5,-5 0,-1 1,-2.5 1,-1.5 2,-3.5 v 0 L 677,839 q 0,0 3.5,-2.5 v 0 q 5,-2 9.5,-5 4.5,-3 7.5,-7 v 0 q 2,-1 2.5,-2.5 0.5,-1.5 1.5,-3.5 v 0 q 1,-7 4,-9.5 3,-2.5 10,-3.5 2,0 3,-1 1,-1 1,-3 0,-2 1,-3 1,-1 3,0 l 8,4 q 1,1 3,1.5 2,0.5 4,1.5 h 1 q 3,1 5,3 2,2 3,5 v 0 q 1,3 1,6 v 6 q 1,7 1,13.5 z m 22,-236 q 6,0 11.5,1.5 5.5,1.5 10.5,3.5 v 0 q 12,5 24.5,11.5 12.5,6.5 25.5,13.5 1,1 1.5,2 0.5,1 -1.5,3 -8,7 -16,14.5 -8,7.5 -16,15.5 -4,4 -7,8 l -6,8 v 1 q -1,2 -3.5,4 -2.5,2 -5.5,3 v 0 q -2,0 -3.5,0.5 -1.5,0.5 -2.5,0.5 -2,0 -3.5,-0.5 -1.5,-0.5 -2.5,-0.5 v 0 q -7,-2 -9.5,-5 -2.5,-3 -2.5,-9 v -69 q -1,-4 0,-5 1,-1 6,-1 z m -114,126 h -29 q -4,0 -5,-1.5 -1,-1.5 -1,-4.5 0,-3 0.5,-6.5 0.5,-3.5 1.5,-6.5 v 0 q 3,-16 10,-29.5 7,-13.5 16,-25.5 v 0 q 3,-4 5,-4 2,0 5,4 l 35,35 q 3,3 5.5,6 2.5,3 5.5,6 2,2 2.5,4 0.5,2 0.5,5 0,2 -0.5,4.5 -0.5,2.5 -2.5,3.5 v 0 q -4,5 -9.5,7.5 -5.5,2.5 -11.5,2.5 v 0 0 0 z m 233,-1 h -73 q -2,0 -3,-0.5 -1,-0.5 -1,-2.5 v -1 q 0,-3 -1,-6 -1,-3 -3,-5 v 0 q -2,-1 -2.5,-2 -0.5,-1 -0.5,-3 0,-1 0.5,-2.5 0.5,-1.5 2.5,-2.5 v 0 q 2,-2 3.5,-5 1.5,-3 1.5,-7 v 0 -8 q 0,-1 0.5,-2 0.5,-1 0.5,-2 v 0 q 4,-3 8.5,-6.5 4.5,-3.5 9.5,-6.5 h 1 q 7,-3 12.5,-6.5 5.5,-3.5 10.5,-8.5 v 0 l 1,-0.5 q 0,0 2,-0.5 2,-0.5 2,0.5 l 1,0.5 q 4,5 7,10 3,5 4,10 v 1 q 2,5 3,10.5 1,5.5 3,11.5 2,9 5,17.5 3,8.5 5,16.5 z m 1,15 -1,2 q -5,10 -8.5,21.5 -3.5,11.5 -5.5,24.5 v 1 q -2,8 -5,14.5 -3,6.5 -8,12.5 v 0 q -2,2 -3.5,2 -1.5,0 -3.5,-2 l -4,-5 -22,-21 q -5,-5 -10,-9.5 -5,-4.5 -10,-8.5 v -1 q -4,-2 -6.5,-5.5 -2.5,-3.5 -2.5,-8.5 0,-1 0.5,-2 0.5,-1 0.5,-2 v 0 q 1,-6 4,-10 3,-4 12,-4 h 69 z m -47,94 v 2 q -9,4 -18,9 -9,5 -19,9 -7,5 -16.5,8 -9.5,3 -18.5,6 h -1 q -3,0 -4.5,-0.5 -1.5,-0.5 -1.5,-3.5 v -67 q 0,-4 2,-5.5 2,-1.5 5,-1.5 4,0 8,-1.5 4,-1.5 8,-4.5 v 0 q 3,-2 5.5,-1.5 2.5,0.5 5.5,3.5 1,3 3,5.5 2,2.5 4,4.5 v 0 q 8,9 17,18 l 19,19 q 0,0 2,1 z"
     id="path4"
     inkscape:connector-curvature="0" />
</svg>
