<?xml version="1.0" encoding="UTF-8" standalone="no"?>
<svg
   xmlns:dc="http://purl.org/dc/elements/1.1/"
   xmlns:cc="http://creativecommons.org/ns#"
   xmlns:rdf="http://www.w3.org/1999/02/22-rdf-syntax-ns#"
   xmlns:svg="http://www.w3.org/2000/svg"
   xmlns="http://www.w3.org/2000/svg"
   xmlns:sodipodi="http://sodipodi.sourceforge.net/DTD/sodipodi-0.dtd"
   xmlns:inkscape="http://www.inkscape.org/namespaces/inkscape"
   width="1500px"
   height="1500px"
   version="1.1"
   id="svg2"
   inkscape:version="0.92.2 (5c3e80d, 2017-08-06)"
   sodipodi:docname="tw.svg">
  <metadata
     id="metadata10">
    <rdf:RDF>
      <cc:Work
         rdf:about="">
        <dc:format>image/svg+xml</dc:format>
        <dc:type
           rdf:resource="http://purl.org/dc/dcmitype/StillImage" />
      </cc:Work>
    </rdf:RDF>
  </metadata>
  <defs
     id="defs8" />
  <sodipodi:namedview
     pagecolor="#ffffff"
     bordercolor="#666666"
     borderopacity="1"
     objecttolerance="10"
     gridtolerance="10"
     guidetolerance="10"
     inkscape:pageopacity="0"
     inkscape:pageshadow="2"
     inkscape:window-width="1351"
     inkscape:window-height="775"
     id="namedview6"
     showgrid="false"
     inkscape:zoom="0.15733333"
     inkscape:cx="-842.16103"
     inkscape:cy="750"
     inkscape:window-x="0"
     inkscape:window-y="23"
     inkscape:window-maximized="0"
     inkscape:current-layer="svg2"
     inkscape:snap-center="true" />
     <path unicode="&#xe911;" glyph-name="indirect" d="M372.087 893.975c-120.883-40.293-129.841-49.25-138.793-124.243-21.269-186.924 78.351-374.967 261.922-496.976 126.482-83.95 352.585-108.572 404.074-43.652 39.178 50.37 69.4 174.613 63.801 260.802-3.359 42.532-8.952 81.711-13.431 85.070-3.359 4.479-51.49-36.939-106.333-89.543-100.74-99.62-110.812-104.094-191.403-97.381-41.412 3.359-66.040 19.029-132.081 82.83-73.873 70.519-91.782 102.979-91.782 170.134 0 50.37 3.359 54.849 97.381 151.108 52.61 54.849 92.902 102.979 89.543 107.453-19.029 17.91-182.45 14.551-242.892-5.599zM602.663 767.493c-83.95-88.423-96.261-105.213-96.261-141.033 0-33.58 10.072-50.37 59.322-100.74 54.849-53.729 64.921-59.322 109.692-59.322 45.891 1.12 55.965 6.718 148.871 94.022 110.812 104.094 109.692 97.381 36.939 189.163-29.101 38.059-135.437 119.765-154.463 119.765-4.479 0-50.37-45.891-104.094-101.86zM754.892 701.453c26.862-27.981 32.46-40.293 25.742-64.921-12.311-50.37-38.059-69.4-90.663-69.4-36.939 0-51.49 5.599-64.921 24.622-25.742 36.939-22.389 83.95 10.072 115.291 36.939 38.059 78.351 35.82 119.765-5.599zM111.285 690.262c-71.636-122.003-80.591-286.544-23.507-414.146 83.95-186.924 327.956-297.735 536.149-241.773 59.322 15.67 145.512 55.965 155.583 72.753 3.359 4.479-32.46 11.191-80.591 14.551-99.62 5.599-171.253 33.58-295.496 117.53-132.081 88.423-224.983 239.533-248.485 408.547l-13.431 92.902-30.221-50.37z"
     id="path4"
     inkscape:connector-curvature="0" />
</svg>
