<?xml version="1.0" encoding="utf-8"?>
<!-- Generator: Adobe Illustrator 19.0.0, SVG Export Plug-In . SVG Version: 6.00 Build 0)  -->
<svg version="1.1"
	 id="svg2" sodipodi:docname="053.svg" inkscape:version="0.92.2 (5c3e80d, 2017-08-06)" xmlns:svg="http://www.w3.org/2000/svg" xmlns:rdf="http://www.w3.org/1999/02/22-rdf-syntax-ns#" xmlns:sodipodi="http://sodipodi.sourceforge.net/DTD/sodipodi-0.dtd" xmlns:inkscape="http://www.inkscape.org/namespaces/inkscape" xmlns:dc="http://purl.org/dc/elements/1.1/" xmlns:cc="http://creativecommons.org/ns#"
	 xmlns="http://www.w3.org/2000/svg" xmlns:xlink="http://www.w3.org/1999/xlink" x="0px" y="0px" viewBox="444 -354 1500 1500"
	 style="enable-background:new 444 -354 1500 1500;" xml:space="preserve">
<sodipodi:namedview  inkscape:snap-center="true" inkscape:current-layer="svg2" inkscape:window-maximized="0" inkscape:window-y="23" inkscape:window-x="0" inkscape:window-height="775" inkscape:pageshadow="2" inkscape:pageopacity="0" inkscape:window-width="1440" gridtolerance="10" objecttolerance="10" inkscape:cx="-1630.2966" inkscape:cy="750" showgrid="false" inkscape:zoom="0.15733333" guidetolerance="10" bordercolor="#666666" pagecolor="#ffffff" borderopacity="1" id="namedview6">
	</sodipodi:namedview>
<path id="path4" inkscape:connector-curvature="0" d="M621.1,280.8c-12.3,9.6-21.2,19.6-26.6,30.2c-5.5,10.6-5.1,15.9,1,15.9
	c3.4-3.4,7.2-6.1,11.3-8.2c3.4-1.4,7.9-2.2,13.3-2.6c5.5-0.3,11.6,1.2,18.4,4.6c12.3,6.1,23,13,32.3,20.5
	c9.2,7.5,19.3,17.7,30.2,30.7c5.5,5.5,13.1,14.7,23,27.6s20.5,26.6,31.7,41c11.3,14.3,22.5,28,33.8,41s21.3,21.8,30.2,26.6
	c15.7,9.6,28.7,17.1,38.9,22.5c10.2,5.5,18.4,9.9,24.6,13.3c7.5,3.4,13,5.8,16.4,7.2c4.8,4.8,8.9,10.2,12.3,16.4
	c3.4,5.5,6.3,11.8,8.7,18.9c2.4,7.2,3.9,15.2,4.6,24.1c2.7,11.6,7.7,21.3,14.8,29.2s15,14.7,23.6,20.5s17.2,10.6,26.1,14.3
	c8.9,3.8,16.4,7.7,22.5,11.8c6.8,4.1,17.2,9.4,31.2,15.9s29.2,13,45.6,19.5c16.4,6.5,33.1,12.1,50.2,16.9
	c17.1,4.8,32.1,7.2,45.1,7.2c15.7,0,32.8-2.4,51.2-7.2c18.4-4.8,36.4-10.4,53.8-16.9c17.4-6.5,33.1-13,47.1-19.5
	c14-6.5,24.4-11.8,31.2-15.9c6.1-4.1,13.5-8,22-11.8c8.5-3.8,16.7-8.5,24.6-14.3c7.9-5.8,14.5-12.6,20-20.5
	c5.5-7.9,8.2-17.6,8.2-29.2s2-21,6.1-28.2c4.1-7.2,8.9-13.1,14.3-17.9c6.1-5.5,13-9.6,20.5-12.3c4.1-0.7,8.9-2.4,14.3-5.1
	c9.6-4.1,24.2-12.6,44-25.6c6.1-4.1,14.7-8.9,25.6-14.3c10.9-5.5,22.9-13.1,35.8-23c13-9.9,26.6-22.5,41-37.9
	c14.3-15.4,28.7-35.3,43-59.9c4.1-6.8,9.2-14,15.4-21.5c6.1-7.5,12.5-14.5,18.9-21c6.5-6.5,12.6-12.1,18.4-16.9
	c5.8-4.8,10.8-8.2,14.8-10.2c3.4-1.4,7-2.2,10.8-2.6c3.8-0.3,7.3-0.7,10.8-1s6.7-1.7,9.7-4.1s4.9-6.3,5.6-11.8
	c-0.7-2.7-1.7-5.5-3.1-8.2c-2.7-5.5-6.8-9.6-12.3-12.3c-10.2-3.4-20.5-6-30.7-7.7s-25.3-2.6-45.1-2.6c-6.8,0-16.9,1.7-30.2,5.1
	s-27.8,7.5-43.5,12.3c-15.7,4.8-31.2,9.7-46.6,14.8s-28.2,9.7-38.4,13.8c-9.6,3.4-18.6,4.1-27.1,2s-16.2-5.5-23-10.2
	c-7.5-4.8-14.7-11.3-21.5-19.5c0-4.8-0.9-13.8-2.6-27.1c-1.7-13.3-5.6-28.3-11.8-45.1s-15.4-34.5-27.6-53.2
	c-12.3-18.8-29-36.2-50.2-52.2c-21.2-16-47.4-29.7-78.8-41s-69.6-17.9-114.7-20c-58,3.4-103.9,14-137.7,31.7
	c-33.8,17.7-59.9,38.4-78.3,62c-18.4,23.6-31.2,48.1-38.4,73.7c-7.2,25.6-12.5,48-15.9,67.1c-4.1,10.2-10.9,18.1-20.5,23.6
	c-7.5,4.8-18.4,7.3-32.8,7.7c-14.3,0.3-32.4-4.6-54.3-14.8c-9.6-4.1-19.3-8.7-29.2-13.8s-19.6-9.9-29.2-14.3
	c-9.6-4.4-19.5-8.4-29.7-11.8c-10.2-3.4-20.5-5.1-30.7-5.1c-13,0-25.1,3.2-36.4,9.7C640,268.3,629.9,274.7,621.1,280.8L621.1,280.8z
	 M1235.5,521.4c4.1,0,7.5,0.7,10.2,2c6.1,2.7,9.2,7.5,9.2,14.3s-3.1,10.9-9.2,12.3c-2.7,1.4-6.1,1.7-10.2,1l-11.3,16.4l-66.6-1
	l-13.3-15.4c-6.8,0-11.4-0.2-13.8-0.5c-2.4-0.3-4.3-5.3-5.6-14.8c0-4.1,0.9-7,2.6-8.7s3.9-3.2,6.7-4.6c2.7-0.7,6.1-1,10.2-1
	c1.4-4.1,2.6-7.5,3.6-10.2s2.9-4.9,5.6-6.7c2.7-1.7,7-2.9,12.8-3.6c5.8-0.7,14.2-1,25.1-1c10.2,0,19.5,0.7,27.6,2
	C1227.3,503.3,1232.7,509.8,1235.5,521.4L1235.5,521.4z M1419.8,432.4c-8.2,10.9-16.7,20.8-25.6,29.7c-7.5,7.5-16,14.5-25.6,21
	s-19.1,9.4-28.7,8.7c-11.6,0-22.9-2.4-33.8-7.2c-10.9-4.8-20.8-9.9-29.7-15.4c-10.2-6.8-19.8-14.3-28.7-22.5
	c8.2-10.9,16.7-20.8,25.6-29.7c7.5-7.5,16-14.5,25.6-21c9.6-6.5,19.5-9.7,29.7-9.7c13.7,0,25.9,2.6,36.9,7.7
	c10.9,5.1,20.5,10.4,28.7,15.9C1403.7,416.7,1412.3,424.2,1419.8,432.4z M1039.9,491.7c-10.2,0-20.1-3.1-29.7-9.2
	c-9.6-6.1-18.1-13-25.6-20.5c-8.9-8.2-17.4-18.1-25.6-29.7c8.2-8.2,17.1-15.7,26.6-22.5c8.2-5.5,17.9-10.8,29.2-15.9
	s23.4-7.7,36.4-7.7c10.2,0,20.1,3.2,29.7,9.7c9.6,6.5,18.1,13.5,25.6,21c8.9,8.9,17.1,18.8,24.6,29.7c-10.2,8.2-20.8,15.7-31.7,22.5
	c-9.6,5.5-19.5,10.6-29.7,15.4S1049.4,491.7,1039.9,491.7L1039.9,491.7z"/>
</svg>
