<?xml version="1.0" encoding="utf-8"?>
<!-- Generator: Adobe Illustrator 19.0.0, SVG Export Plug-In . SVG Version: 6.00 Build 0)  -->
<svg version="1.1"
	 id="svg2" xmlns:svg="http://www.w3.org/2000/svg" xmlns:cc="http://creativecommons.org/ns#" xmlns:dc="http://purl.org/dc/elements/1.1/" xmlns:inkscape="http://www.inkscape.org/namespaces/inkscape" xmlns:sodipodi="http://sodipodi.sourceforge.net/DTD/sodipodi-0.dtd" xmlns:rdf="http://www.w3.org/1999/02/22-rdf-syntax-ns#" inkscape:version="0.92.2 (5c3e80d, 2017-08-06)" sodipodi:docname="055.svg"
	 xmlns="http://www.w3.org/2000/svg" xmlns:xlink="http://www.w3.org/1999/xlink" x="0px" y="0px" viewBox="444 -354 1500 1500"
	 style="enable-background:new 444 -354 1500 1500;" xml:space="preserve">
<sodipodi:namedview  objecttolerance="10" inkscape:cx="-1630.2966" guidetolerance="10" gridtolerance="10" inkscape:zoom="0.15733333" id="namedview6" inkscape:cy="750" showgrid="false" pagecolor="#ffffff" bordercolor="#666666" borderopacity="1" inkscape:window-x="0" inkscape:window-y="23" inkscape:window-width="1440" inkscape:window-maximized="0" inkscape:current-layer="svg2" inkscape:snap-center="true" inkscape:pageshadow="2" inkscape:pageopacity="0" inkscape:window-height="775">
	</sodipodi:namedview>
<path id="path4" inkscape:connector-curvature="0" d="M1147.6,893.4C1022,879.6,919.9,816,874.2,724.2
	c-17.8-35.8-24.1-62.6-29.2-121.1c-2.4-28-5.1-57.5-6.3-65.1l-1.8-14.2l29.8-1.8c98.5-6.9,134.3-8.1,269-9.6
	c92.8-1.2,181-0.6,233.4,1.5c83.7,3.3,176.8,9,178.6,10.8c3,2.7-12,135.2-17.5,153.3C1494,804.9,1370.2,888,1207.6,894.9
	C1188.6,895.5,1161.8,894.9,1147.6,893.4L1147.6,893.4z M830.2,468.5c-9-68.1-39.8-197.9-65.7-275c-4.8-13.9-5.7-23.5-4.8-42.2
	c1.2-23.8,1.8-25.3,31.3-82.8c29.8-58.1,59-107.8,79.5-134.9c14.2-19,42.2-33.1,69.3-35.5c16.3-1.5,27.1,0,63.2,8.7
	c100.9,24.7,119.3,27.4,188.2,27.4c69.3,0.3,76.2-0.6,184.3-25.3c28.6-6.6,57.2-12,63.5-12c24.1,0,56.9,14.2,71.7,30.4
	c31.6,35.5,109.6,179.8,116,214.4c3.6,21.1,3.6,21.1-18.4,95.5c-19.6,66.3-35.5,134.9-46.7,200.6c-4.2,24.4-8.4,45.2-9.3,46.1
	c-3.9,3.9-33.7-33.1-45.8-56c-18.1-34.9-17.2-43.1,7.2-70.8c28-31.6,31.6-58.1,14.8-102.7c-17.5-45.2-41-83.1-83.4-133.7
	c-16.3-19.6-22.6-25-30.7-26.5c-12-2.4-10.8-3-74.1,36.1c-139.4,86.4-155.7,86.4-294.2-0.6c-30.1-19-59.3-35.2-65.1-36.1
	c-12.6-1.8-21.7,5.4-49.1,39.2c-37.6,47-63.2,91.6-78.3,136.7c-12,35.8-7.8,53,22.6,90.7c16.3,20.8,20.8,33.4,15.7,47
	c-10.2,26.2-47.3,77.1-56.6,77.1C833.5,484.1,831.4,476.9,830.2,468.5L830.2,468.5z M831.4,240.2c0-3.9-27.7-21.1-30.7-19.3
	c-4.8,3-2.1,6.9,10.5,14.5C824.8,243.5,831.4,245,831.4,240.2z M1574.4,235.7c6.9-4.2,13-9.6,13-12c0-6.3-2.1-5.7-18.7,4.8
	C1545.8,243.2,1550.6,249.5,1574.4,235.7z M840.4,225.1c0-3-26.2-21.1-30.7-21.1c-6.9,0-0.9,9.6,10.5,16
	C834.1,228.1,840.4,229.6,840.4,225.1z M1569.3,217.6c6.6-4.2,11.4-9,10.2-10.8c-2.1-3.9-6-2.4-22.3,7.8c-6.6,4.2-11.4,9-10.2,10.8
	C1549.1,229.3,1553,227.8,1569.3,217.6z M848,206.7c-0.9-1.5-7.8-6.3-15.4-10.5c-9.6-5.7-14.5-7.2-16.9-4.8
	c-2.1,2.1,1.8,5.7,13,12.3C843.4,212.2,851.9,213.4,848,206.7z M1556.9,204.6c13.6-8.4,19.3-15.7,11.7-15.7
	c-6.6,0.3-32.8,18.1-31,21.1C1540.1,214.3,1541.9,213.7,1556.9,204.6L1556.9,204.6z M856.7,191.7c-3-4.8-29.5-20.5-31.9-19
	c-5.1,3.3-1.8,7.5,13.3,16C852.8,197.1,860.9,198.3,856.7,191.7z M1546.4,190.2c15.1-8.4,18.1-11.7,15.4-16.3
	c-2.4-3.9-31.6,14.5-31.6,19.9S1530.1,199.2,1546.4,190.2L1546.4,190.2z M864.5,176.9c0-3.9-27.7-21.1-30.7-19.3
	c-4.8,3-2.1,6.9,10.5,14.5C857.9,180.2,864.5,181.7,864.5,176.9z M1541.3,172.4c6.9-4.2,13-9.6,13-12c0-6-0.6-6-18.1,4.8
	C1512.7,179.6,1517.2,186.3,1541.3,172.4z M873.6,161.9c0-3-26.2-21.1-30.7-21.1c-6.9,0-0.9,9.3,10.5,16.3
	C866.9,165.2,873.6,166.7,873.6,161.9L873.6,161.9z M1534.3,155.5c10.5-6.6,13.9-9.9,11.4-12.3c-3.9-3.9-34.9,14.5-31.9,19
	C1516.3,166.4,1518.7,165.5,1534.3,155.5z M881.1,143.5c-3.3-5.1-28.3-18.4-31.6-16.3c-4.8,3-0.9,6.9,14.5,14.8
	C877.5,148.9,884.7,149.5,881.1,143.5L881.1,143.5z M1524.1,141.7c14.2-7.8,18.4-14.8,8.7-14.2c-7.2,0.6-30.1,16.3-28.3,19.3
	C1506.9,151,1507.2,151,1524.1,141.7L1524.1,141.7z M1167.2,443.8c-24.4-6-45.8-17.2-93.7-49.4c-52.4-34.9-78-48.5-109.6-57.8
	c-30.4-9-39.8-18.7-46.4-47.3c-7.2-32.2-6.3-40.1,7.5-68.1c22.6-44.6,53.9-86.4,65.4-86.4c2.4,0,11.4,5.1,19.9,11.1
	c72.9,53,106.6,75.6,131,87.6c26.8,13.3,29.8,14.2,52.7,14.2c22,0,26.8-1.2,47.6-11.1c25.9-12.3,52.1-29.5,110.5-72.3
	c22-16.3,42.5-29.5,45.5-29.5c3,0,12.3,7.5,20.5,16.6c15.4,17.5,50.3,75.6,54.8,92.5c3.6,11.7-1.5,47.3-9,64.8
	c-6.6,15.1-14.5,20.5-40.1,27.7c-30.4,8.7-56,22.3-106,56C1241.3,443.8,1210.3,454.3,1167.2,443.8L1167.2,443.8z"/>
</svg>
