<?xml version="1.0" encoding="utf-8"?>
<!-- Generator: Adobe Illustrator 19.0.0, SVG Export Plug-In . SVG Version: 6.00 Build 0)  -->
<svg version="1.1"
	 id="svg2" sodipodi:docname="055.svg" inkscape:version="0.92.2 (5c3e80d, 2017-08-06)" xmlns:dc="http://purl.org/dc/elements/1.1/" xmlns:rdf="http://www.w3.org/1999/02/22-rdf-syntax-ns#" xmlns:sodipodi="http://sodipodi.sourceforge.net/DTD/sodipodi-0.dtd" xmlns:inkscape="http://www.inkscape.org/namespaces/inkscape" xmlns:cc="http://creativecommons.org/ns#" xmlns:svg="http://www.w3.org/2000/svg"
	 xmlns="http://www.w3.org/2000/svg" xmlns:xlink="http://www.w3.org/1999/xlink" x="0px" y="0px" viewBox="444 -354 1500 1500"
	 style="enable-background:new 444 -354 1500 1500;" xml:space="preserve">
<sodipodi:namedview  inkscape:window-height="775" inkscape:pageopacity="0" inkscape:pageshadow="2" inkscape:window-y="23" inkscape:window-x="0" inkscape:snap-center="true" inkscape:current-layer="svg2" inkscape:window-width="1440" inkscape:window-maximized="0" id="namedview6" inkscape:cx="-1630.2966" guidetolerance="10" inkscape:zoom="0.15733333" objecttolerance="10" gridtolerance="10" bordercolor="#666666" borderopacity="1" pagecolor="#ffffff" showgrid="false" inkscape:cy="750">
	</sodipodi:namedview>
<path id="path4" inkscape:connector-curvature="0" d="M1240.3-101.4C1365.9-87.6,1468-24,1513.7,67.8
	c17.8,35.8,24.1,62.6,29.2,121.1c2.4,28,5.1,57.5,6.3,65.1l1.8,14.2l-29.8,1.8c-98.5,6.9-134.3,8.1-269,9.6
	c-92.8,1.2-181,0.6-233.4-1.5c-83.7-3.3-176.8-9-178.6-10.8c-3-2.7,12-135.2,17.5-153.3c36.2-126.9,160-210,322.6-216.9
	C1199.3-103.5,1226.1-102.9,1240.3-101.4L1240.3-101.4z M1557.7,323.5c9,68.1,39.8,197.9,65.7,275c4.8,13.9,5.7,23.5,4.8,42.2
	c-1.2,23.8-1.8,25.3-31.3,82.8c-29.8,58.1-59,107.8-79.5,134.9c-14.2,19-42.2,33.1-69.3,35.5c-16.3,1.5-27.1,0-63.2-8.7
	c-100.9-24.7-119.3-27.4-188.2-27.4c-69.3-0.3-76.2,0.6-184.3,25.3c-28.6,6.6-57.2,12-63.5,12c-24.1,0-56.9-14.2-71.7-30.4
	c-31.6-35.5-109.6-179.8-116-214.4c-3.6-21.1-3.6-21.1,18.4-95.5c19.6-66.3,35.5-134.9,46.7-200.6c4.2-24.4,8.4-45.2,9.3-46.1
	c3.9-3.9,33.7,33.1,45.8,56c18.1,34.9,17.2,43.1-7.2,70.8c-28,31.6-31.6,58.1-14.8,102.7c17.5,45.2,41,83.1,83.4,133.7
	c16.3,19.6,22.6,25,30.7,26.5c12,2.4,10.8,3,74.1-36.1c139.4-86.4,155.7-86.4,294.2,0.6c30.1,19,59.3,35.2,65.1,36.1
	c12.6,1.8,21.7-5.4,49.1-39.2c37.6-47,63.2-91.6,78.3-136.7c12-35.8,7.8-53-22.6-90.7c-16.3-20.8-20.8-33.4-15.7-47
	c10.2-26.2,47.3-77.1,56.6-77.1C1554.4,307.9,1556.5,315.1,1557.7,323.5L1557.7,323.5z M1556.5,551.8c0,3.9,27.7,21.1,30.7,19.3
	c4.8-3,2.1-6.9-10.5-14.5C1563.1,548.5,1556.5,547,1556.5,551.8z M813.5,556.3c-6.9,4.2-13,9.6-13,12c0,6.3,2.1,5.7,18.7-4.8
	C842.1,548.8,837.3,542.5,813.5,556.3z M1547.5,566.9c0,3,26.2,21.1,30.7,21.1c6.9,0,0.9-9.6-10.5-16
	C1553.8,563.9,1547.5,562.4,1547.5,566.9z M818.6,574.4c-6.6,4.2-11.4,9-10.2,10.8c2.1,3.9,6,2.4,22.3-7.8c6.6-4.2,11.4-9,10.2-10.8
	C838.8,562.7,834.9,564.2,818.6,574.4z M1539.9,585.3c0.9,1.5,7.8,6.3,15.4,10.5c9.6,5.7,14.5,7.2,16.9,4.8c2.1-2.1-1.8-5.7-13-12.3
	C1544.5,579.8,1536,578.6,1539.9,585.3z M831,587.4c-13.6,8.4-19.3,15.7-11.7,15.7c6.6-0.3,32.8-18.1,31-21.1
	C847.8,577.7,846,578.3,831,587.4L831,587.4z M1531.2,600.3c3,4.8,29.5,20.5,31.9,19c5.1-3.3,1.8-7.5-13.3-16
	C1535.1,594.9,1527,593.7,1531.2,600.3z M841.5,601.8c-15.1,8.4-18.1,11.7-15.4,16.3c2.4,3.9,31.6-14.5,31.6-19.9
	C857.7,592.8,857.8,592.8,841.5,601.8L841.5,601.8z M1523.4,615.1c0,3.9,27.7,21.1,30.7,19.3c4.8-3,2.1-6.9-10.5-14.5
	C1530,611.8,1523.4,610.3,1523.4,615.1z M846.6,619.6c-6.9,4.2-13,9.6-13,12c0,6,0.6,6,18.1-4.8
	C875.2,612.4,870.7,605.7,846.6,619.6z M1514.3,630.1c0,3,26.2,21.1,30.7,21.1c6.9,0,0.9-9.3-10.5-16.3
	C1521,626.8,1514.3,625.3,1514.3,630.1L1514.3,630.1z M853.6,636.5c-10.5,6.6-13.9,9.9-11.4,12.3c3.9,3.9,34.9-14.5,31.9-19
	C871.6,625.6,869.2,626.5,853.6,636.5z M1506.8,648.5c3.3,5.1,28.3,18.4,31.6,16.3c4.8-3,0.9-6.9-14.5-14.8
	C1510.4,643.1,1503.2,642.5,1506.8,648.5L1506.8,648.5z M863.8,650.3c-14.2,7.8-18.4,14.8-8.7,14.2c7.2-0.6,30.1-16.3,28.3-19.3
	C881,641,880.7,641,863.8,650.3L863.8,650.3z M1220.7,348.2c24.4,6,45.8,17.2,93.7,49.4c52.4,34.9,78,48.5,109.6,57.8
	c30.4,9,39.8,18.7,46.4,47.3c7.2,32.2,6.3,40.1-7.5,68.1c-22.6,44.6-53.9,86.4-65.4,86.4c-2.4,0-11.4-5.1-19.9-11.1
	c-72.9-53-106.6-75.6-131-87.6c-26.8-13.3-29.8-14.2-52.7-14.2c-22,0-26.8,1.2-47.6,11.1c-25.9,12.3-52.1,29.5-110.5,72.3
	c-22,16.3-42.5,29.5-45.5,29.5s-12.3-7.5-20.5-16.6c-15.4-17.5-50.3-75.6-54.8-92.5c-3.6-11.7,1.5-47.3,9-64.8
	c6.6-15.1,14.5-20.5,40.1-27.7c30.4-8.7,56-22.3,106-56C1146.6,348.2,1177.6,337.7,1220.7,348.2L1220.7,348.2z"/>
</svg>
