<?xml version="1.0" encoding="utf-8"?>
<!-- Generator: Adobe Illustrator 19.0.0, SVG Export Plug-In . SVG Version: 6.00 Build 0)  -->
<svg version="1.1"
	 id="svg2" sodipodi:docname="055.svg" inkscape:version="0.92.2 (5c3e80d, 2017-08-06)" xmlns:dc="http://purl.org/dc/elements/1.1/" xmlns:rdf="http://www.w3.org/1999/02/22-rdf-syntax-ns#" xmlns:sodipodi="http://sodipodi.sourceforge.net/DTD/sodipodi-0.dtd" xmlns:inkscape="http://www.inkscape.org/namespaces/inkscape" xmlns:cc="http://creativecommons.org/ns#" xmlns:svg="http://www.w3.org/2000/svg"
	 xmlns="http://www.w3.org/2000/svg" xmlns:xlink="http://www.w3.org/1999/xlink" x="0px" y="0px" viewBox="444 -354 1500 1500"
	 style="enable-background:new 444 -354 1500 1500;" xml:space="preserve">
<sodipodi:namedview  inkscape:window-height="775" inkscape:pageopacity="0" inkscape:pageshadow="2" inkscape:window-y="23" inkscape:snap-center="true" inkscape:window-x="0" inkscape:current-layer="svg2" inkscape:window-maximized="0" inkscape:window-width="1440" id="namedview6" inkscape:cx="-1630.2966" guidetolerance="10" inkscape:zoom="0.15733333" objecttolerance="10" gridtolerance="10" bordercolor="#666666" borderopacity="1" pagecolor="#ffffff" showgrid="false" inkscape:cy="750">
	</sodipodi:namedview>
<path id="path4" inkscape:connector-curvature="0" d="M971.7-107.8c2.1,7.1,2.6,25,2.1,74.4c-0.9,93.2,6,203.9,16.7,266.4
	c8.6,49.8,21,89.8,40.2,128.7c5.3,10.9,10,19.5,10.5,19.2c2.6-2.8,7.7-50.5,7.9-75.2l0.2-29.9l-15.2-33.1
	c-18.4-40-24.2-57.3-26.3-81.2c-2.8-30.6-3.8-30.8,39.5,8.3c21,18.8,38.7,34.4,39.5,34.4c0.9,0,11.8-25.7,24.4-57.3
	c20.3-50.7,44.7-103,53.4-114.6c2.8-3.8,3.6-3.4,16,7.3c35.3,30.6,65,87,80.2,152.2l3.8,16.2l8.8-10.3c4.9-5.6,19.2-22.4,32.3-37.4
	l23.5-27.2l1.5,8.1c0.9,4.7,1.5,42.3,1.5,83.8c0.2,83.2-0.6,77.8,14.8,98.3l8.6,11.3l4.7-10.3c19.5-43,29.7-80.2,45.7-166.7
	c5.1-28,13.5-71.6,18.2-96.8s12-65.6,16.2-89.8c4.5-24.2,8.6-44.5,9.4-45.3c1.5-1.7,57.7,170.6,77.2,236.7
	c21.8,72.9,42.8,165.7,52.2,229.8c10,68.6,8.3,131-5.1,182.4c-12.4,47.2-35.9,90.4-78.2,143.7c-25.9,32.5-154.3,161.2-156.9,156.9
	c-7.7-12.2-37.8-128.9-35.9-138.1c0.9-3.8,13.9,14.8,38.3,54.3c10.9,17.7,9.4,18,27.6-5.8c33.6-44.3,61.8-95.3,79.5-144.1
	c12-32.7,22.4-98.1,27.6-171.2c2.8-41.5,1.3-160.8-2.1-164.2c-4.7-4.7-70.5,102.2-112.2,182.6c-25.9,50.2-34.4,71.8-62.4,157.6
	c-35.5,109-52.8,149.9-82.3,194.8c-12.2,18.6-55.6,66.5-60.1,66.5c-5.6,0-40.6-87.6-60.1-149.6c-18.6-59-24.6-89.4-38.7-195.8
	c-10.3-76.7-12.4-90.4-16-99.6c-1.3-3.2-10.3-14.5-19.9-25.2c-42.1-46.2-56.9-69.9-72.5-115.4c-7.5-22-7.7-22.7-9.4-21
	c-2.8,2.8-23.5,65-29.9,90.6c-25.2,97.9-25.2,169.5,0.4,269.1c10.9,42.8,45.7,144.3,49.6,144.3c0.6,0,9.8-13.9,20.5-31
	c10.5-17.1,20.1-30.8,21.4-30.4c5.8,1.9,6.8,30.8,2.1,49.6c-1.9,6.8-10,26.7-18.4,44.3c-8.1,17.5-15.4,34.6-16.2,38.1
	c-0.6,3.6-2.1,6.4-3.2,6.4c-4.3,0-31-32.3-51.3-62c-27.2-39.1-67.8-114.8-79.5-147.5c-7.3-19.7-19.2-65.4-23.5-89.8
	c-13.7-74.8-13.3-163.1,1.1-249.1c10.9-66.5,37.8-154.6,67.3-222.1c31-70.1,51.7-124,73.8-190.5c6.2-18.8,12-35.1,12.8-36.1
	S970-112.9,971.7-107.8L971.7-107.8z M1266.5,355.3c-10.9,10.9-15.6,17.7-19.5,27.4c-6,16-7.7,37.4-3.8,50l2.8,9.4l11.1-23.5
	c9.8-20.7,28.4-70.5,28.4-75.7C1285.6,338.2,1279.8,342,1266.5,355.3L1266.5,355.3z M1121.8,364.2c3,12,7.7,26.7,10.5,32.9
	c4.7,10.3,17.1,25,21.2,25c4.7,0-5.1-40-13.7-56.2c-6.2-11.3-20.1-26.5-22.4-24.4C1116.9,342.2,1118.8,352.5,1121.8,364.2
	L1121.8,364.2z M1058.7,398.5c2.4,4.3,41.3,41.3,42.3,40.2c1.7-1.7-4.5-16.9-10-24.6c-7.3-10.3-14.3-15.2-24.2-17.5
	C1056.6,394,1056.4,394,1058.7,398.5L1058.7,398.5z M1299,409.8c-5.8,5.3-6.6,16.9-1.7,21c12,9.8,29.9-7.5,21.4-20.5
	C1314.4,403.6,1305.7,403.6,1299,409.8L1299,409.8z M1181.2,433.5c-3.6,5.1-8.6,15-10.9,22.2c-4.9,14.8-9.2,43.6-6.6,46.2
	c0.9,1.1,7.7,5.6,15.2,10l13.7,8.1l0.6-8.8c1.3-13.9-1.9-87-3.6-87C1188.7,424.3,1184.9,428.4,1181.2,433.5L1181.2,433.5z
	 M1212.7,547.9c-10.3,12.6-18.8,27.1-22.9,38.7c-1.3,3.6-3.2,6.6-4.1,6.6c-0.9,0-4.1-3.4-6.8-7.7c-8.3-12.2-25.9-26.7-41.7-34.2
	c-13.7-6.6-35.5-12.8-39.5-11.1c-1.1,0.4,3,16.9,9,36.6l10.9,35.9l10.5-21c5.8-11.5,10.9-21.4,11.3-21.8c2.1-2.4,7.3,6.6,14.5,25.7
	c8.8,22.7,18.8,36.6,29.3,40.2c6.2,2.1,6.6,1.9,9.4-4.7c1.5-3.8,6.8-20.5,11.8-37.2c5.1-16.7,9.8-30.1,10.5-29.5
	c0.9,0.4,7.1,10,14.1,21.2c6.8,11.3,13.3,19.9,14.1,18.8c1.5-1.5,11.1-58.4,10-59.2c-1.3-0.9-26.3-9.2-28.4-9.4
	C1223.3,535.5,1218,541,1212.7,547.9L1212.7,547.9z"/>
</svg>
