<?xml version="1.0" encoding="utf-8"?>
<!-- Generator: Adobe Illustrator 19.0.0, SVG Export Plug-In . SVG Version: 6.00 Build 0)  -->
<svg version="1.1"
	 id="svg2" sodipodi:docname="055.svg" inkscape:version="0.92.2 (5c3e80d, 2017-08-06)" xmlns:dc="http://purl.org/dc/elements/1.1/" xmlns:rdf="http://www.w3.org/1999/02/22-rdf-syntax-ns#" xmlns:sodipodi="http://sodipodi.sourceforge.net/DTD/sodipodi-0.dtd" xmlns:inkscape="http://www.inkscape.org/namespaces/inkscape" xmlns:cc="http://creativecommons.org/ns#" xmlns:svg="http://www.w3.org/2000/svg"
	 xmlns="http://www.w3.org/2000/svg" xmlns:xlink="http://www.w3.org/1999/xlink" x="0px" y="0px" viewBox="444 -354 1500 1500"
	 style="enable-background:new 444 -354 1500 1500;" xml:space="preserve">
<sodipodi:namedview  inkscape:window-height="775" inkscape:pageopacity="0" inkscape:pageshadow="2" inkscape:window-y="23" inkscape:snap-center="true" inkscape:window-x="0" inkscape:current-layer="svg2" inkscape:window-maximized="0" inkscape:window-width="1440" id="namedview6" inkscape:cx="-1630.2966" guidetolerance="10" inkscape:zoom="0.15733333" objecttolerance="10" gridtolerance="10" bordercolor="#666666" borderopacity="1" pagecolor="#ffffff" showgrid="false" inkscape:cy="750">
	</sodipodi:namedview>
<path id="path4" inkscape:connector-curvature="0" d="M468.736 899.277c-24.218-27.443-44.339-50.33-44.698-50.842-0.614-0.87-0.205-1.638 3.123-6.502 20.326-29.747 34.15-65.178 38.707-99.277 0.614-4.352 1.638-18.33 1.382-18.586-0.102-0.051-1.843 2.253-3.891 5.12-20.787 29.133-49.050 54.63-76.646 69.12-3.174 1.69-6.144 2.97-6.502 2.816-0.666-0.256-57.242-62.464-57.549-63.283-0.051-0.256 0.614-0.717 1.536-1.075 3.379-1.331 18.022-8.755 22.835-11.571 15.155-8.909 27.904-18.739 39.782-30.669 12.032-12.083 20.326-23.501 27.699-38.298 21.043-41.933 31.795-78.797 34.56-118.374 0.717-10.598 0.358-31.488-0.768-41.216-3.994-34.202-14.797-66.253-30.413-90.061-3.328-5.069-13.773-16.026-20.275-21.248-34.304-27.546-74.65-30.003-120.115-7.219-14.234 7.117-30.003 17.766-40.96 27.597-3.738 3.328-14.029 14.387-19.814 21.299-36.864 43.827-57.037 90.573-62.925 145.664-1.075 10.086-1.28 38.451-0.307 48.896 3.84 42.035 14.95 82.381 34.355 125.184 17.818 39.168 45.517 83.354 70.451 112.282 4.966 5.734 5.632 7.27 3.277 7.27-1.741 0-21.35-13.619-37.734-26.266-18.995-14.643-32.922-26.982-52.122-46.131-18.483-18.483-29.030-30.31-42.598-47.77-58.931-75.725-93.952-164.659-102.246-259.738-5.018-57.805 0.87-119.706 16.845-175.974 20.582-72.755 55.552-137.011 105.933-194.97 8.090-9.318 34.97-36.147 44.134-44.134 44.39-38.554 91.597-67.43 143.872-87.962 56.576-22.221 116.89-33.536 178.893-33.536 117.504 0.051 223.437 35.43 307.251 102.656 27.699 22.221 54.579 49.869 76.237 78.336 57.6 75.725 92.416 169.318 101.888 273.92 2.202 24.371 2.97 44.493 2.15 56.832-8.55 126.259-45.466 222.157-116.019 301.568-23.347 26.317-51.405 51.763-87.552 79.411-16.333 12.544-30.208 22.528-32.41 23.398-2.355 0.922-4.71 1.126-4.71 0.41 0-0.512 3.072-4.301 4.557-5.581 1.536-1.382 13.056-15.462 19.507-23.91 22.426-29.235 38.349-54.374 52.224-82.432 19.814-40.038 30.925-77.466 35.174-118.272 1.229-12.083 1.229-40.602 0-52.224-4.25-39.168-14.438-72.858-32.512-107.008-16.179-30.618-40.346-61.85-59.136-76.544-14.387-11.264-24.371-17.715-37.478-24.32-10.086-5.069-16.691-7.629-26.112-10.24-11.52-3.174-15.053-3.584-28.928-3.584-11.059 0.051-13.158 0.205-17.92 1.229-18.534 3.994-33.894 11.981-48.742 25.242-13.773 12.339-27.597 35.84-35.379 60.058-5.069 15.821-8.346 34.15-9.574 53.76-2.97 47.258 8.243 104.96 28.416 146.432 14.029 28.877 39.731 56.934 68.813 75.11 6.605 4.198 18.125 10.138 23.347 12.186 1.69 0.666 3.174 1.28 3.277 1.331 0.307 0.256-56.371 63.693-56.934 63.693-1.28 0-16.384-9.421-25.958-16.179-22.272-15.77-44.902-38.042-58.624-57.805-3.328-4.813-3.226-4.762-3.021-2.202 1.792 21.248 4.659 35.891 10.496 54.067 7.066 21.811 18.842 47.104 30.003 64.307l3.277 5.018-1.792 2.15c-5.325 6.349-86.682 98.304-87.091 98.458-0.256 0.051-20.326-22.323-44.544-49.818z"/>
</svg>
