<?xml version="1.0" encoding="utf-8"?>
<!-- Generator: Adobe Illustrator 23.1.1, SVG Export Plug-In . SVG Version: 6.00 Build 0)  -->
<svg version="1.1"
	 id="svg2" xmlns:cc="http://creativecommons.org/ns#" xmlns:dc="http://purl.org/dc/elements/1.1/" xmlns:inkscape="http://www.inkscape.org/namespaces/inkscape" xmlns:rdf="http://www.w3.org/1999/02/22-rdf-syntax-ns#" xmlns:sodipodi="http://sodipodi.sourceforge.net/DTD/sodipodi-0.dtd" xmlns:svg="http://www.w3.org/2000/svg"
	 xmlns="http://www.w3.org/2000/svg" xmlns:xlink="http://www.w3.org/1999/xlink" x="0px" y="0px" viewBox="0 0 1500 1500"
	 style="enable-background:new 0 0 1500 1500;" xml:space="preserve">
<sodipodi:namedview  bordercolor="#666666" borderopacity="1" gridtolerance="10" guidetolerance="10" id="namedview6" inkscape:current-layer="svg2" inkscape:cx="750" inkscape:cy="771.32313" inkscape:pageopacity="0" inkscape:pageshadow="2" inkscape:window-height="899" inkscape:window-maximized="0" inkscape:window-width="1644" inkscape:window-x="1339" inkscape:window-y="70" inkscape:zoom="0.15733333" objecttolerance="10" pagecolor="#ffffff" showgrid="false">
	</sodipodi:namedview>
<path d="M520.4,287.6c-65.2,46.5-65.2,55.9-21.7,80.7c71.4,40.3,62.1,96.2-27.9,180c-46.5,43.4-86.9,124.1-99.3,195.5
	C359,827.6,334.2,871,297,880.3c-49.6,15.5-59,46.5-59,198.6c0,183.1,0,183.1,93.1,183.1c90,0,93.1-6.2,93.1-139.6
	c0-117.9,9.3-139.6,62.1-139.6s62.1,21.7,62.1,139.6V1262H1262v-183.1c0-158.3-9.3-189.3-62.1-204.8c-40.3-12.4-62.1-46.5-62.1-93.1
	c0-201.7-161.4-325.8-415.8-325.8c-133.4,0-183.1-34.1-111.7-77.6c37.2-21.7,43.4-139.6,6.2-139.6
	C604.2,238,560.7,259.7,520.4,287.6L520.4,287.6z M933.1,660c40.3,108.6,21.7,136.5-105.5,136.5c-117.9,0-124.1-6.2-124.1-93.1
	c0-83.8,9.3-93.1,105.5-93.1C877.2,610.4,920.7,629,933.1,660L933.1,660z M930,880.3c-90,6.2-238.9,6.2-325.8,0
	c-90-6.2-18.6-9.3,161.4-9.3S1016.9,874.1,930,880.3L930,880.3z M765.5,703.5c0,46.5,15.5,62.1,55.9,55.9
	c27.9-6.2,52.8-31,52.8-55.9s-24.8-49.6-52.8-55.9C781,641.4,765.5,656.9,765.5,703.5z"/>
</svg>
