<?xml version="1.0" encoding="UTF-8" standalone="no"?>
<svg
   xmlns:dc="http://purl.org/dc/elements/1.1/"
   xmlns:cc="http://creativecommons.org/ns#"
   xmlns:rdf="http://www.w3.org/1999/02/22-rdf-syntax-ns#"
   xmlns:svg="http://www.w3.org/2000/svg"
   xmlns="http://www.w3.org/2000/svg"
   xmlns:sodipodi="http://sodipodi.sourceforge.net/DTD/sodipodi-0.dtd"
   xmlns:inkscape="http://www.inkscape.org/namespaces/inkscape"
   width="1500px"
   height="1500px"
   version="1.1"
   id="svg2"
   inkscape:version="0.91 r13725"
   sodipodi:docname="033.svg">
  <metadata
     id="metadata10">
    <rdf:RDF>
      <cc:Work
         rdf:about="">
        <dc:format>image/svg+xml</dc:format>
        <dc:type
           rdf:resource="http://purl.org/dc/dcmitype/StillImage" />
      </cc:Work>
    </rdf:RDF>
  </metadata>
  <defs
     id="defs8" />
  <sodipodi:namedview
     pagecolor="#ffffff"
     bordercolor="#666666"
     borderopacity="1"
     objecttolerance="10"
     gridtolerance="10"
     guidetolerance="10"
     inkscape:pageopacity="0"
     inkscape:pageshadow="2"
     inkscape:window-width="660"
     inkscape:window-height="480"
     id="namedview6"
     showgrid="false"
     inkscape:zoom="0.15733333"
     inkscape:cx="750"
     inkscape:cy="750"
     inkscape:window-x="0"
     inkscape:window-y="0"
     inkscape:window-maximized="0"
     inkscape:current-layer="svg2" />
  <path
     glyph-name="uniE900"
     unicode=""
     horiz-adv-x="1024"
     d="m 267.5,481 0,216 210,0 20,-49 q 21,-48 56,-83.5 35,-35.5 83,-57.5 l 51,-24 0,-219 -420,0 0,217 0,0 z m 544,-200 q -3,8 -4,40 -1,32 1,68 l 4,91 64,32 q 48,25 94,80.5 46,55.5 46,87.5 0,11 23,14 23,3 86,1 l 107,-4 0,-420 -207,-4 q -124,-2 -166.5,0.5 -42.5,2.5 -47.5,13.5 l 0,0 z m -117,300 q -53,15 -84,57 -31,42 -37.5,92.5 -6.5,50.5 13,99.5 19.5,49 66.5,78 58,36 129,22 71,-14 115,-70 39,-49 36,-106 -3,-57 -35.5,-102 -32.5,-45 -86.5,-67.5 -54,-22.5 -116,-3.5 l 0,0 z m 308,281 q -21,48 -59.5,85.5 -38.5,37.5 -88.5,58.5 l -50,21 8,202 420,0 0,-416 -104,-1 -103,-3 -23,53 0,0 z m -735,164 0,210 420,0 0,-105 q 0,-78 -4.5,-94 -4.5,-16 -30.5,-26 Q 605.5,994 566,957.5 526.5,921 504.5,875 l -29,-59 -208,0 0,210 0,0 z"
     id="path4"
     inkscape:connector-curvature="0" />
</svg>
