<?xml version="1.0" encoding="UTF-8" standalone="no"?>
<svg
   xmlns:dc="http://purl.org/dc/elements/1.1/"
   xmlns:cc="http://creativecommons.org/ns#"
   xmlns:rdf="http://www.w3.org/1999/02/22-rdf-syntax-ns#"
   xmlns:svg="http://www.w3.org/2000/svg"
   xmlns="http://www.w3.org/2000/svg"
   xmlns:sodipodi="http://sodipodi.sourceforge.net/DTD/sodipodi-0.dtd"
   xmlns:inkscape="http://www.inkscape.org/namespaces/inkscape"
   width="1500px"
   height="1500px"
   version="1.1"
   id="svg2"
   inkscape:version="0.91 r13725"
   sodipodi:docname="038.svg">
  <metadata
     id="metadata10">
    <rdf:RDF>
      <cc:Work
         rdf:about="">
        <dc:format>image/svg+xml</dc:format>
        <dc:type
           rdf:resource="http://purl.org/dc/dcmitype/StillImage" />
      </cc:Work>
    </rdf:RDF>
  </metadata>
  <defs
     id="defs8" />
  <sodipodi:namedview
     pagecolor="#ffffff"
     bordercolor="#666666"
     borderopacity="1"
     objecttolerance="10"
     gridtolerance="10"
     guidetolerance="10"
     inkscape:pageopacity="0"
     inkscape:pageshadow="2"
     inkscape:window-width="660"
     inkscape:window-height="480"
     id="namedview6"
     showgrid="false"
     inkscape:zoom="0.15733333"
     inkscape:cx="750"
     inkscape:cy="750"
     inkscape:window-x="0"
     inkscape:window-y="0"
     inkscape:window-maximized="0"
     inkscape:current-layer="svg2" />
  <path
     glyph-name="uniE905"
     unicode=""
     horiz-adv-x="801"
     d="m 627.11905,316 q -5,34 -12.5,44.5 -7.5,10.5 -36.5,24.5 -46,22 -95,74.5 -49,52.5 -76,111.5 -22,45 -27.5,71.5 -5.5,26.5 -5.5,87.5 0,61 5.5,87 5.5,26 26.5,70 29,62 50.5,88 21.5,26 36.5,20 7,-2 19.5,-14 12.5,-12 23.5,-26 l 27,-36 -34,-52 q -22,-37 -31.5,-78 -9.5,-41 -6,-82 3.5,-41 19.5,-80 16,-39 44,-71 12,-14 27,-27.5 15,-13.5 24,-17.5 13,-8 15.5,-3.5 2.5,4.5 -0.5,33.5 -2,18 -1.5,30 0.5,12 3.5,12 7,0 52,-23 45,-23 95.5,-50.5 50.5,-27.5 91,-51.5 40.5,-24 38.5,-26 -6,-5 -46.5,-31 -40.5,-26 -87.5,-55.5 -47,-29.5 -86,-53.5 -39,-24 -41,-24 -2,0 -5.5,14 -3.5,14 -6.5,34 l 0,0 z m 341,210 -44,46 26,31 q 28,32 44,89.5 15.99995,57.5 9.99995,101.5 -5.99995,44 -34.49995,96 -28.5,52 -59.5,76 l -34,25 0,-42 q 0,-17 -1.5,-29.5 -1.5,-12.5 -3.5,-12.5 -7,0 -51,23 -44,23 -94,51 -50,28 -89.5,52 -39.5,24 -37.5,26 3,4 43.5,30.5 40.5,26.5 94.5,59.5 l 129,83 0,-51 q 0,-37 5.5,-46.5 5.5,-9.5 36.5,-25.5 55,-28 98.99995,-74 44,-46 73,-101.5 29,-55.5 40,-116 11,-60.5 1,-118.5 -10,-48 -33.5,-102 -23.5,-54 -52.5,-88 l -23,-28 -43.99995,45 0,0 z"
     id="path4"
     inkscape:connector-curvature="0" />
</svg>
