<?xml version="1.0" encoding="UTF-8" standalone="no"?>
<svg
   xmlns:dc="http://purl.org/dc/elements/1.1/"
   xmlns:cc="http://creativecommons.org/ns#"
   xmlns:rdf="http://www.w3.org/1999/02/22-rdf-syntax-ns#"
   xmlns:svg="http://www.w3.org/2000/svg"
   xmlns="http://www.w3.org/2000/svg"
   xmlns:sodipodi="http://sodipodi.sourceforge.net/DTD/sodipodi-0.dtd"
   xmlns:inkscape="http://www.inkscape.org/namespaces/inkscape"
   width="1500px"
   height="1500px"
   version="1.1"
   id="svg2"
   inkscape:version="0.91 r13725"
   sodipodi:docname="039.svg">
  <metadata
     id="metadata10">
    <rdf:RDF>
      <cc:Work
         rdf:about="">
        <dc:format>image/svg+xml</dc:format>
        <dc:type
           rdf:resource="http://purl.org/dc/dcmitype/StillImage" />
      </cc:Work>
    </rdf:RDF>
  </metadata>
  <defs
     id="defs8" />
  <sodipodi:namedview
     pagecolor="#ffffff"
     bordercolor="#666666"
     borderopacity="1"
     objecttolerance="10"
     gridtolerance="10"
     guidetolerance="10"
     inkscape:pageopacity="0"
     inkscape:pageshadow="2"
     inkscape:window-width="660"
     inkscape:window-height="480"
     id="namedview6"
     showgrid="false"
     inkscape:zoom="0.15733333"
     inkscape:cx="750"
     inkscape:cy="750"
     inkscape:window-x="0"
     inkscape:window-y="0"
     inkscape:window-maximized="0"
     inkscape:current-layer="svg2" />
  <path
     glyph-name="uniE906"
     unicode=""
     horiz-adv-x="952"
     d="m 440.16272,278.77273 q -9,5 -15,15 -6,10 -6,19 0,9 35,66.5 35,57.5 85,128.5 68,97 92.5,140.5 24.5,43.5 20.5,58.5 -3,15 4.5,27.5 7.5,12.5 30.5,30.5 39,30 62,29.5 23,-0.5 62,-30.5 26,-19 33,-31 7,-12 2,-30 -3,-16 19,-55.5 22,-39.5 91,-136.5 47.99998,-68 83.49998,-121.5 35.5,-53.5 38.5,-59.5 5,-15 -15,-39.5 -20,-24.5 -36,-24.5 -6,0 -48.49998,46 -42.5,46 -96.5,111 -53,64 -92,110 -39,46 -40,46 -2,0 -40.5,-45 -38.5,-45 -92.5,-109 -53,-63 -95.5,-108.5 -42.5,-45.5 -47.5,-46.5 -5,-2 -15.5,1 -10.5,3 -18.5,8 l 0,0 z m 107,534 q -13,13 -22.5,27 -9.5,14 -9.5,21 0,7 -11,20.5 -11,13.5 -26,24.5 -16,11 -32.5,31.5 -16.5,20.5 -23.5,38.5 -7,18 -24,42.99997 -17,25 -34,42 -17,17 -32,39 -15,22 -21,35 -7,20 -2,32 5,12 30,38 37,36 63,28 26,-8 72,-69 19,-26 38.5,-48 19.5,-22 28.5,-28 9,-7 22.5,-25.5 13.5,-18.5 23.5,-38.5 10,-19 26,-38.49997 16,-19.5 28,-27.5 27,-18 54,-59.5 27,-41.5 20,-52.5 -5,-9 -42.5,-27.5 -37.5,-18.5 -68.5,-27.5 -13,-3 -26.5,2 -13.5,5 -30.5,20 l 0,0 z m 299,-6 q -65,29 -66.5,49 -1.5,20 54.5,78 27,27 46.5,49.5 19.5,22.49997 19.5,27.49997 0,3 16,25 16,22 37,47 23,26 46,55 22.99998,29 33.99998,44 33,47 56,51 23,4 63,-27 44,-34 40.5,-59 -3.5,-25 -58.5,-82 -22,-23 -37.5,-43.5 -15.5,-20.5 -15.5,-27.49997 0,-18 -27,-53.5 -27,-35.5 -40,-35.5 -7,0 -14.49998,-10.5 -7.5,-10.5 -12.5,-24.5 -10,-27 -37,-56.5 -27,-29.5 -42,-29.5 -6,0 -24,7 -18,7 -38,16 l 0,0 z"
     id="path4"
     inkscape:connector-curvature="0" />
</svg>
