<?xml version="1.0" encoding="UTF-8" standalone="no"?>
<svg
   xmlns:dc="http://purl.org/dc/elements/1.1/"
   xmlns:cc="http://creativecommons.org/ns#"
   xmlns:rdf="http://www.w3.org/1999/02/22-rdf-syntax-ns#"
   xmlns:svg="http://www.w3.org/2000/svg"
   xmlns="http://www.w3.org/2000/svg"
   xmlns:sodipodi="http://sodipodi.sourceforge.net/DTD/sodipodi-0.dtd"
   xmlns:inkscape="http://www.inkscape.org/namespaces/inkscape"
   width="1500px"
   height="1500px"
   version="1.1"
   id="svg2"
   inkscape:version="0.91 r13725"
   sodipodi:docname="040.svg">
  <metadata
     id="metadata10">
    <rdf:RDF>
      <cc:Work
         rdf:about="">
        <dc:format>image/svg+xml</dc:format>
        <dc:type
           rdf:resource="http://purl.org/dc/dcmitype/StillImage" />
      </cc:Work>
    </rdf:RDF>
  </metadata>
  <defs
     id="defs8" />
  <sodipodi:namedview
     pagecolor="#ffffff"
     bordercolor="#666666"
     borderopacity="1"
     objecttolerance="10"
     gridtolerance="10"
     guidetolerance="10"
     inkscape:pageopacity="0"
     inkscape:pageshadow="2"
     inkscape:window-width="660"
     inkscape:window-height="480"
     id="namedview6"
     showgrid="false"
     inkscape:zoom="0.15733333"
     inkscape:cx="750"
     inkscape:cy="750"
     inkscape:window-x="0"
     inkscape:window-y="0"
     inkscape:window-maximized="0"
     inkscape:current-layer="svg2" />
  <path
     glyph-name="uniE907"
     unicode=""
     horiz-adv-x="876"
     d="m 1048,317.55882 q -17,18 -33,30.5 -16,12.5 -21,12.5 -5,0 -20,9.5 -15,9.5 -32,21.5 l -40,32 -49,-44 -35,27 q -19,14 -30,18.5 -11,4.5 -15,-1.5 -8,-13 -26.5,5.5 -18.5,18.5 -13.5,32.5 2,6 0.5,10.5 -1.5,4.5 -5.5,4.5 -5,0 -25.5,17 -20.5,17 -45.5,41 -24,24 -46,41 -22,17 -28,17 -6,0 -20.5,13 -14.5,13 -28.5,30 -15,20 -40,39 -25,19 -48,30 -21,9 -46,24 -25,15 -37,25 l -32,26 36,43 36,42 29,-21 q 13,-9 27,-22.5 14,-13.5 22,-24.5 20,-30 54.5,-64.5 34.5,-34.5 40.5,-28.5 2,2 -7.5,13 -9.5,11 -25.5,25 l -39,33 32,36 32,37 -22,25 q -16,17 -11.5,29.5 4.5,12.5 22.5,1.5 4,-2 17.5,1 13.5,3 28.5,9 22,9 32,21 10,12 17,40 38,145.99998 50,180.49998 12,34.5 31,49.5 33,26 59.5,18 26.5,-8 48.5,-48 9,-18 1,-42 -8,-24 -52,-110 -42,-82.99998 -51,-107.99998 -9,-25 1,-35 10,-9 19.5,-9.5 9.5,-0.5 32.5,8.5 36,13 61.5,2 25.5,-11 91.5,-66 30,-25 48,-46 18,-21 18,-29 0,-10 -17,-36 -17,-26 -38,-52.5 -21,-26.5 -40,-45.5 -19,-19 -25,-16 -4,2 -5.5,0 -1.5,-2 0.5,-9 2,-6 18.5,-18.5 16.5,-12.5 37.5,-23.5 22,-11 48,-31.5 26,-20.5 41,-37.5 16,-17 41.5,-39.5 25.5,-22.5 46.5,-37.5 l 50,-33 -34,-42 q -14,-17 -25.5,-29.5 -11.5,-12.5 -14.5,-12.5 -2,0 -16.5,12.5 -14.5,12.5 -30.5,29.5 l 0,0 z m -206,180 q -35,31 -49.5,38.5 -14.5,7.5 -12.5,-4.5 0,-9 43.5,-42.5 43.5,-33.5 54.5,-33.5 4,0 -6,12 -10,12 -30,30 l 0,0 z m 25,284 29,29 -29,24 q -25,19 -33.5,20 -8.5,1 -31.5,-15 -21,-14 -22.5,-32 -1.5,-18 16.5,-38 18,-20 32,-17.5 14,2.5 39,29.5 z"
     id="path4"
     inkscape:connector-curvature="0" />
</svg>
