<?xml version="1.0" encoding="UTF-8" standalone="no"?>
<svg
   xmlns:dc="http://purl.org/dc/elements/1.1/"
   xmlns:cc="http://creativecommons.org/ns#"
   xmlns:rdf="http://www.w3.org/1999/02/22-rdf-syntax-ns#"
   xmlns:svg="http://www.w3.org/2000/svg"
   xmlns="http://www.w3.org/2000/svg"
   xmlns:sodipodi="http://sodipodi.sourceforge.net/DTD/sodipodi-0.dtd"
   xmlns:inkscape="http://www.inkscape.org/namespaces/inkscape"
   width="1500px"
   height="1500px"
   version="1.1"
   id="svg2"
   inkscape:version="0.91 r13725"
   sodipodi:docname="044.svg">
  <metadata
     id="metadata10">
    <rdf:RDF>
      <cc:Work
         rdf:about="">
        <dc:format>image/svg+xml</dc:format>
        <dc:type
           rdf:resource="http://purl.org/dc/dcmitype/StillImage" />
      </cc:Work>
    </rdf:RDF>
  </metadata>
  <defs
     id="defs8" />
  <sodipodi:namedview
     pagecolor="#ffffff"
     bordercolor="#666666"
     borderopacity="1"
     objecttolerance="10"
     gridtolerance="10"
     guidetolerance="10"
     inkscape:pageopacity="0"
     inkscape:pageshadow="2"
     inkscape:window-width="660"
     inkscape:window-height="480"
     id="namedview6"
     showgrid="false"
     inkscape:zoom="0.15733333"
     inkscape:cx="750"
     inkscape:cy="750"
     inkscape:window-x="0"
     inkscape:window-y="0"
     inkscape:window-maximized="0"
     inkscape:current-layer="svg2" />
  <path
     glyph-name="uniE90B"
     unicode=""
     horiz-adv-x="1024"
     d="m 1231,617.79487 -381,-102 -67,-249 q -4,-16 -18.5,-24 -14.5,-8 -30.5,-3 l -465,124 q -17,5 -25.5,19 -8.5,14 -4.5,30 l 166,617.00003 q 4,15 18.5,23 14.5,8 30.5,4 l 185,-50 -25,94 q -4,16 4.5,30 8.5,14 25.5,18 l 415,112 q 16,4 30.5,-4 14.5,-8 19.5,-23 l 152,-568.00003 q 4,-15 -4.5,-29.5 -8.5,-14.5 -25.5,-18.5 l 0,0 z m -909,-194 401,-107 148,554 -401,107 -148,-554 0,0 z m 719,760.00003 -349,-96 27,-102.00003 200,-54 q 16,-4 25,-18.5 9,-14.5 5,-29.5 l -78,-288 305,83 -135,505.00003 0,0 z"
     id="path4"
     inkscape:connector-curvature="0" />
</svg>
