<?xml version="1.0" encoding="UTF-8" standalone="no"?>
<svg
   xmlns:dc="http://purl.org/dc/elements/1.1/"
   xmlns:cc="http://creativecommons.org/ns#"
   xmlns:rdf="http://www.w3.org/1999/02/22-rdf-syntax-ns#"
   xmlns:svg="http://www.w3.org/2000/svg"
   xmlns="http://www.w3.org/2000/svg"
   xmlns:sodipodi="http://sodipodi.sourceforge.net/DTD/sodipodi-0.dtd"
   xmlns:inkscape="http://www.inkscape.org/namespaces/inkscape"
   width="1500px"
   height="1500px"
   version="1.1"
   id="svg2"
   inkscape:version="0.92.2 (5c3e80d, 2017-08-06)"
   sodipodi:docname="051.svg">
  <metadata
     id="metadata10">
    <rdf:RDF>
      <cc:Work
         rdf:about="">
        <dc:format>image/svg+xml</dc:format>
        <dc:type
           rdf:resource="http://purl.org/dc/dcmitype/StillImage" />
      </cc:Work>
    </rdf:RDF>
  </metadata>
  <defs
     id="defs8" />
  <sodipodi:namedview
     pagecolor="#ffffff"
     bordercolor="#666666"
     borderopacity="1"
     objecttolerance="10"
     gridtolerance="10"
     guidetolerance="10"
     inkscape:pageopacity="0"
     inkscape:pageshadow="2"
     inkscape:window-width="1440"
     inkscape:window-height="775"
     id="namedview6"
     showgrid="false"
     inkscape:zoom="0.15733333"
     inkscape:cx="-842.16103"
     inkscape:cy="750"
     inkscape:window-x="0"
     inkscape:window-y="23"
     inkscape:window-maximized="0"
     inkscape:current-layer="svg2"
     inkscape:snap-center="true" />
  <path
     unicode=""
     glyph-name="indirect"
     d="m 1178.4523,885.04083 c -40.293,120.88297 -49.25,129.84097 -124.243,138.79297 -186.92405,21.269 -374.96705,-78.35097 -496.97605,-261.92197 -83.94997,-126.482 -108.57197,-352.58502 -43.652,-404.07402 50.37,-39.178 174.613,-69.4 260.802,-63.801 42.532,3.359 81.711,8.952 85.07,13.431 4.479,3.359 -36.939,51.49 -89.543,106.333 -99.62,100.74002 -104.094,110.81202 -97.381,191.40302 3.359,41.412 19.029,66.04 82.83,132.081 70.519,73.873 102.979,91.782 170.134,91.782 50.37,0 54.849,-3.359 151.10805,-97.381 54.849,-52.61 102.979,-92.902 107.453,-89.543 17.91,19.029 14.551,182.45 -5.599,242.892 z m -126.482,-230.576 c -88.42305,83.95 -105.21305,96.261 -141.03305,96.261 -33.58,0 -50.37,-10.072 -100.74,-59.322 -53.729,-54.849 -59.322,-64.921 -59.322,-109.692 1.12,-45.891 6.718,-55.965 94.022,-148.87102 104.094,-110.812 97.381,-109.692 189.16305,-36.939 38.059,29.101 119.765,135.43702 119.765,154.46302 0,4.479 -45.891,50.37 -101.86,104.094 z m -66.04005,-152.229 c -27.981,-26.86202 -40.293,-32.46002 -64.921,-25.74202 -50.37,12.311 -69.4,38.05902 -69.4,90.66302 0,36.939 5.599,51.49 24.622,64.921 36.939,25.742 83.95,22.389 115.291,-10.072 38.05905,-36.939 35.82005,-78.351 -5.599,-119.765 z m -11.191,643.60697 c -122.003,71.636 -286.544,80.591 -414.146,23.507 -186.92397,-83.95 -297.73497,-327.95597 -241.77297,-536.14897 15.67,-59.322 55.965,-145.51202 72.753,-155.58302 4.479,-3.359 11.191,32.46002 14.551,80.59102 5.599,99.62 33.58,171.253 117.52997,295.496 88.423,132.081 239.533,224.98297 408.547,248.48497 l 92.90205,13.431 -50.37005,30.221 z"
     id="path4"
     inkscape:connector-curvature="0" />
</svg>
